<svg xmlns="http://www.w3.org/2000/svg" xmlns:osb="http://www.openswatchbook.org/uri/2009/osb" xmlns:svg="http://www.w3.org/2000/svg" id="svg11300" width="24" height="24" version="1.0" style="display:inline;enable-background:new"><defs id="defs3"><linearGradient id="selected_bg_color" osb:paint="solid"><stop style="stop-color:#5294e2;stop-opacity:1" id="stop4140" offset="0"/></linearGradient></defs><metadata id="metadata4"/><g style="display:inline" id="layer1" transform="translate(0,-276)"><path style="fill:#383838;fill-opacity:1;stroke-width:3.77960205" id="path14" d="m 12,279 a 9,9 0 1 0 0,18 9,9 0 0 0 0,-18 z m 3.207984,2.50857 a 1.1990079,1.1990079 0 0 1 0.892878,1.79213 1.2011338,1.2011338 0 1 1 -0.892878,-1.79213 z m -3.21011,1.27128 c 0.484706,0 0.952404,0.0659 1.396717,0.18921 a 1.6858392,1.6858392 0 0 0 2.259832,1.30955 c 0.888627,0.87375 1.466871,2.06213 1.551907,3.38657 l -1.711349,0.0234 a 3.5098618,3.5098618 0 0 0 -4.974608,-2.86996 L 9.684894,283.31985 A 5.2020787,5.2020787 0 0 1 12,282.77988 Z m -2.895476,0.87588 0.880123,1.47324 a 3.50561,3.50561 0 0 0 0,5.74206 l -0.880123,1.47112 a 5.2254636,5.2254636 0 0 1 -2.155664,-3.03365 1.6815874,1.6815874 0 0 0 0,-2.61699 5.2297154,5.2297154 0 0 1 2.155664,-3.03578 z m -3.222866,3.14208 a 1.2021968,1.2021968 0 1 1 0,2.40439 1.201135,1.201135 0 0 1 0,-2.40227 z m 9.615449,1.51151 1.711349,0.0276 a 5.2042046,5.2042046 0 0 1 -1.551907,3.38443 1.6794615,1.6794615 0 0 0 -2.259832,1.30743 5.21696,5.21696 0 0 1 -3.709697,-0.34865 l 0.835479,-1.49664 a 3.5077359,3.5077359 0 0 0 4.974608,-2.87421 z m -0.584623,3.79686 a 1.2037273,1.2037273 0 1 1 0.293374,2.38951 1.2037273,1.2037273 0 0 1 -0.293374,-2.38951 z"/></g></svg>