<svg xmlns="http://www.w3.org/2000/svg" xmlns:osb="http://www.openswatchbook.org/uri/2009/osb" xmlns:svg="http://www.w3.org/2000/svg" id="svg11300" width="24" height="24" version="1.0" style="display:inline;enable-background:new"><defs id="defs3"><linearGradient id="selected_bg_color" osb:paint="solid"><stop style="stop-color:#5294e2;stop-opacity:1" id="stop4140" offset="0"/></linearGradient></defs><metadata id="metadata4"/><g style="display:inline" id="layer1" transform="translate(0,-276)"><path style="fill:#383838;fill-opacity:1;stroke-width:3.77960205" id="path14-3" d="m 12.002118,279 a 9.0017158,9.0010657 0 0 0 -8.9995893,8.99469 v 7.60859 c 0,0.77383 0.622933,1.39672 1.396817,1.39672 H 12.00637 a 9.0006533,9.0000033 0 0 0 -0.0043,-18 z m 2.712846,1.97284 c 0.36143,0 0.618682,0.0425 0.952473,0.12755 0.488992,0.12755 0.886564,0.52935 0.886564,0.99492 0,0.56124 -0.406076,0.97154 -1.01838,0.97154 -0.289143,0 -0.395446,-0.0574 -0.820657,-0.0574 -1.256498,0 -2.274879,1.02043 -2.277004,2.27471 v 1.96858 c 0,0.17858 0.142445,0.32314 0.318908,0.32314 h 1.498868 a 1.004565,1.0044925 0 1 1 0,2.00898 H 12.43796 v 2.2981 a 4.3158911,4.3155794 0 0 1 -4.3158913,4.31558 c -0.36143,0 -0.618683,-0.0425 -0.952473,-0.12968 -0.488993,-0.12755 -0.888691,-0.52723 -0.888691,-0.9928 0,-0.56336 0.408203,-0.97153 1.020506,-0.97153 0.289144,0 0.395446,0.0553 0.820658,0.0553 1.256497,0 2.2748783,-1.0183 2.2770043,-2.27471 v -1.97709 a 0.32103426,0.32101107 0 0 0 -0.321035,-0.32314 H 8.5812957 a 1.004575,1.0045024 0 1 1 0.01063,-2.00897 h 1.8071463 v -2.28748 a 4.3158911,4.3155794 0 0 1 4.315891,-4.31557 z"/></g></svg>