<svg xmlns="http://www.w3.org/2000/svg" xmlns:osb="http://www.openswatchbook.org/uri/2009/osb" xmlns:xlink="http://www.w3.org/1999/xlink" width="507" height="416" version="1.1"><defs id="theme"><linearGradient id="selected_bg_color" osb:paint="solid"><stop offset="0" stop-color="#0860f2"/></linearGradient><clipPath id="clipPath4466"><rect width="21" height="26" x="-18" y="-280.64" fill="#f11" opacity=".558" transform="scale(-1,1)"/></clipPath><clipPath id="clipPath4480"><rect width="21" height="26" x="-86" y="-280.64" fill="#f11" opacity=".558" transform="scale(-1,1)"/></clipPath><clipPath id="clipPath4466-9"><rect width="21" height="26" x="-18" y="-280.64" fill="#f11" opacity=".558" transform="scale(-1,1)"/></clipPath><clipPath id="clipPath4480-0"><rect width="21" height="26" x="-86" y="-280.64" fill="#f11" opacity=".558" transform="scale(-1,1)"/></clipPath><clipPath id="clipPath4675"><rect width="21" height="26" x="2" y="-280.64" fill="#ff1616" opacity=".64" rx="0" ry="0"/></clipPath><clipPath id="clipPath4685"><rect width="21" height="26" x="70" y="-280.64" fill="#ff1616" opacity=".64" rx="0" ry="0"/></clipPath><clipPath id="clipPath4695"><rect width="21" height="26" x="104" y="-280.64" fill="#ff1616" opacity=".64" rx="0" ry="0"/></clipPath><clipPath id="clipPath4466-1"><rect width="21" height="26" x="-18" y="-280.64" fill="#f11" opacity=".558" transform="scale(-1,1)"/></clipPath><clipPath id="clipPath4480-4"><rect width="21" height="26" x="-86" y="-280.64" fill="#f11" opacity=".558" transform="scale(-1,1)"/></clipPath><clipPath id="clipPath4466-9-0"><rect width="21" height="26" x="-18" y="-280.64" fill="#f11" opacity=".558" transform="scale(-1,1)"/></clipPath><clipPath id="clipPath4480-0-0"><rect width="21" height="26" x="-86" y="-280.64" fill="#f11" opacity=".558" transform="scale(-1,1)"/></clipPath><clipPath id="clipPath4675-4"><rect width="21" height="26" x="2" y="-280.64" fill="#ff1616" opacity=".64" rx="0" ry="0"/></clipPath><clipPath id="clipPath4685-4"><rect width="21" height="26" x="70" y="-280.64" fill="#ff1616" opacity=".64" rx="0" ry="0"/></clipPath><clipPath id="clipPath4695-6"><rect width="21" height="26" x="104" y="-280.64" fill="#ff1616" opacity=".64" rx="0" ry="0"/></clipPath><clipPath id="clipPath4407"><rect width="10" height="13" x="13" y="-267.64" fill="#66a1dc" opacity=".579"/></clipPath><clipPath id="clipPath4413"><rect width="10" height="13" x="13" y="-280.64" fill="#66a1dc" opacity=".579"/></clipPath><clipPath id="clipPath4407-2"><rect width="10" height="13" x="13" y="-267.64" fill="#66a1dc" opacity=".579"/></clipPath><clipPath id="clipPath4413-2"><rect width="10" height="13" x="13" y="-280.64" fill="#66a1dc" opacity=".579"/></clipPath><clipPath id="clipPath4407-1"><rect width="10" height="13" x="13" y="-267.64" fill="#66a1dc" opacity=".579"/></clipPath><clipPath id="clipPath4413-9"><rect width="10" height="13" x="13" y="-280.64" fill="#66a1dc" opacity=".579"/></clipPath><clipPath id="clipPath4407-2-4"><rect width="10" height="13" x="13" y="-267.64" fill="#66a1dc" opacity=".579"/></clipPath><clipPath id="clipPath4413-2-6"><rect width="10" height="13" x="13" y="-280.64" fill="#66a1dc" opacity=".579"/></clipPath><clipPath id="clipPath6057"><rect width="30" height="30" y="1022.4" fill="#ff2121" opacity=".377"/></clipPath><clipPath id="clipPath6057-7"><rect width="30" height="30" y="1022.4" fill="#ff2121" opacity=".377"/></clipPath><clipPath id="clipPath6057-4"><rect width="30" height="30" y="1022.4" fill="#ff2121" opacity=".377"/></clipPath><clipPath id="clipPath6057-9"><rect width="30" height="30" y="1022.4" fill="#ff2121" opacity=".377"/></clipPath><clipPath id="clipPath6162"><rect width="24" height="32" x="407" y="111" fill="#ad4242"/></clipPath><linearGradient id="linearGradient5043" x1="220" x2="220" y1="281" y2="286" gradientUnits="userSpaceOnUse" xlink:href="#selected_bg_color"/><linearGradient id="linearGradient5049" x1="-54.638" x2="-54.638" y1="-235" y2="-227" gradientTransform="translate(283.64,-7)" gradientUnits="userSpaceOnUse" xlink:href="#selected_bg_color"/><linearGradient id="linearGradient5051" x1="231" x2="231" y1="-82.638" y2="-74.638" gradientTransform="translate(7,283.64)" gradientUnits="userSpaceOnUse" xlink:href="#selected_bg_color"/><linearGradient id="linearGradient5053" x1="240.5" x2="240.5" y1="-154.64" y2="-129.64" gradientUnits="userSpaceOnUse" xlink:href="#selected_bg_color"/><clipPath id="clipPath4466-3"><rect width="21" height="26" x="-18" y="-280.64" fill="#f11" opacity=".558" transform="scale(-1,1)"/></clipPath><clipPath id="clipPath4466-3-8"><rect width="21" height="26" x="-18" y="-280.64" fill="#f11" opacity=".558" transform="scale(-1,1)"/></clipPath><linearGradient id="linearGradient1559" x1="263" x2="263" y1="-152.64" y2="-137.64" gradientUnits="userSpaceOnUse" xlink:href="#selected_bg_color"/><linearGradient id="selected_fg_color" osb:paint="solid"><stop offset="0" stop-color="#fff"/></linearGradient><linearGradient id="linearGradient3917" x1="51.611" x2="80.996" y1="141.02" y2="141.02" gradientUnits="userSpaceOnUse" xlink:href="#unchecked_highlight"/><linearGradient id="unchecked_highlight" osb:paint="solid"><stop offset="0" stop-color="#5f5f5f"/></linearGradient><linearGradient id="linearGradient3919" x1="66.303" x2="66.303" y1="155.48" y2="126.56" gradientTransform="matrix(1 0 0 .92857 0 11.106)" gradientUnits="userSpaceOnUse" xlink:href="#dark_unchecked_bg"/><linearGradient id="dark_unchecked_bg" osb:paint="gradient"><stop offset="0" stop-color="#6a6a6a"/><stop offset="1" stop-color="#545454"/></linearGradient><linearGradient id="linearGradient3913" x1="18" x2="32" y1="38.362" y2="38.362" gradientUnits="userSpaceOnUse" xlink:href="#unchecked_highlight"/><linearGradient id="linearGradient3915" x1="24" x2="24" y1="45.362" y2="31.362" gradientTransform="matrix(1 0 0 .92857 0 3.2402)" gradientUnits="userSpaceOnUse" xlink:href="#dark_unchecked_bg"/><linearGradient id="linearGradient3905" x1="17.879" x2="31.879" y1="38.362" y2="38.362" gradientUnits="userSpaceOnUse" xlink:href="#unchecked_highlight"/><linearGradient id="linearGradient3907" x1="24.879" x2="24.879" y1="45.362" y2="31.362" gradientTransform="matrix(1 0 0 .92857 0 3.2402)" gradientUnits="userSpaceOnUse" xlink:href="#dark_unchecked_bg"/><linearGradient id="linearGradient3893" x1="51.611" x2="80.996" y1="141.02" y2="141.02" gradientUnits="userSpaceOnUse" xlink:href="#selected_bg_color"/><linearGradient id="linearGradient3889" x1="18" x2="32" y1="38.362" y2="38.362" gradientUnits="userSpaceOnUse" xlink:href="#selected_bg_color"/><linearGradient id="linearGradient1759" x1="31" x2="57" y1="-267.64" y2="-267.64" gradientUnits="userSpaceOnUse" xlink:href="#selected_bg_color"/><linearGradient id="linearGradient5017" x1="44" x2="44" y1="-279.64" y2="-255.64" gradientTransform="matrix(.96308 0 0 .95987 1.6244 -10.74)" gradientUnits="userSpaceOnUse" xlink:href="#selected_bg_color"/><clipPath id="clipPath4466-3-1-0-6"><rect width="21" height="26" x="-18" y="-280.64" fill="#f11" opacity=".558" transform="scale(-1,1)"/></clipPath><linearGradient id="linearGradient5171-1" x1="9.5" x2="9.5" y1="-279.64" y2="-255.64" gradientTransform="translate(1)" gradientUnits="userSpaceOnUse" xlink:href="#selected_bg_color"/><linearGradient id="linearGradient6618-1" x1="17.5" x2="17.5" y1="-279.14" y2="-256.14" gradientTransform="matrix(2,0,0,1,-18,0)" gradientUnits="userSpaceOnUse" xlink:href="#selected_bg_color"/><clipPath id="clipPath4466-3-1-5"><rect width="21" height="26" x="-18" y="-280.64" fill="#f11" opacity=".558" transform="scale(-1,1)"/></clipPath><linearGradient id="linearGradient5171" x1="9.5" x2="9.5" y1="-279.64" y2="-255.64" gradientTransform="translate(.5)" gradientUnits="userSpaceOnUse" xlink:href="#selected_bg_color"/><clipPath id="clipPath4470-6-5"><rect width="21" height="26" x="-52" y="-280.64" fill="#f11" opacity=".558" transform="scale(-1,1)"/></clipPath><linearGradient id="linearGradient5025" x1="43.5" x2="43.5" y1="-279.64" y2="-255.64" gradientTransform="translate(.5)" gradientUnits="userSpaceOnUse" xlink:href="#selected_bg_color"/><linearGradient id="linearGradient5121-9" x1="51.5" x2="51.5" y1="-278.64" y2="-256.64" gradientTransform="matrix(2,0,0,1,-154,-5.2172e-6)" gradientUnits="userSpaceOnUse" xlink:href="#selected_bg_color"/><clipPath id="clipPath4470-7-0-2"><rect width="21" height="26" x="-52" y="-280.64" fill="#f11" opacity=".558" transform="scale(-1,1)"/></clipPath><linearGradient id="linearGradient5121-0" x1="51.5" x2="51.5" y1="-278.64" y2="-256.64" gradientTransform="matrix(2,0,0,1,-154,-5.2344e-6)" gradientUnits="userSpaceOnUse" xlink:href="#selected_bg_color"/><clipPath id="clipPath4470-7-1"><rect width="21" height="26" x="-52" y="-280.64" fill="#f11" opacity=".558" transform="scale(-1,1)"/></clipPath><linearGradient id="linearGradient5121-2" x1="51.5" x2="51.5" y1="-278.64" y2="-256.64" gradientTransform="matrix(2,0,0,1,-52,-5.2172e-6)" gradientUnits="userSpaceOnUse" xlink:href="#selected_bg_color"/><clipPath id="clipPath4470-70"><rect width="21" height="26" x="-52" y="-280.64" fill="#f11" opacity=".558" transform="scale(-1,1)"/></clipPath><linearGradient id="linearGradient5121" x1="51.5" x2="51.5" y1="-278.64" y2="-256.64" gradientTransform="matrix(2,0,0,1,-52,0)" gradientUnits="userSpaceOnUse" xlink:href="#selected_bg_color"/><linearGradient id="linearGradient1765" x1="121.6" x2="126.4" y1="8.362" y2="8.362" gradientTransform="matrix(.39689 0 0 .39689 112.97 71.165)" gradientUnits="userSpaceOnUse" xlink:href="#selected_fg_color"/><linearGradient id="linearGradient1767" x1="145.93" x2="156" y1="19.012" y2="19.012" gradientUnits="userSpaceOnUse" xlink:href="#selected_fg_color"/><linearGradient id="linearGradient2007" x1="101" x2="123" y1="-267.64" y2="-267.64" gradientUnits="userSpaceOnUse" xlink:href="#selected_bg_color"/><linearGradient id="linearGradient1944" x1="245" x2="270" y1="-145.14" y2="-145.14" gradientUnits="userSpaceOnUse" xlink:href="#selected_bg_color"/><linearGradient id="linearGradient1943" x1="121.6" x2="126.4" y1="8.362" y2="8.362" gradientTransform="matrix(1.5 0 0 1.5 -62 -4.1811)" gradientUnits="userSpaceOnUse" xlink:href="#selected_fg_color"/><linearGradient id="linearGradient1949" x1="66.303" x2="66.303" y1="155.48" y2="126.56" gradientTransform="matrix(1 0 0 .92857 0 11.106)" gradientUnits="userSpaceOnUse" xlink:href="#dark_unchecked_bg"/></defs><rect width="507" height="416" y="-416" fill="#333" color="#000" rx="0" ry="0" transform="scale(1,-1)"/><g id="button" transform="translate(7,283.64)"><rect width="22" height="22" x="-1" y="-278.64" fill="#656565" rx="4" ry="4"/><rect width="23" height="23" x="-1.5" y="-279.14" fill="none" stroke="#000" stroke-opacity=".118" rx="4.5" ry="4.5"/><rect width="26" height="24" x="-3" y="-279.64" fill="none" opacity=".133"/><path fill="#fff" d="m10 5c-2.216 0-4 1.784-4 4v0.81836c0-2.1153 1.784-3.8184 4-3.8184h14c2.216 0 4 1.7031 4 3.8184v-0.81836c0-2.216-1.784-4-4-4z" opacity=".1" transform="translate(-7,-283.64)"/></g><g id="button-hover" transform="translate(7,283.64)"><rect width="22" height="22" x="33" y="-278.64" fill="#707070" rx="4" ry="4"/><rect width="23" height="23" x="32.5" y="-279.14" fill="none" stroke="#000" stroke-opacity=".118" rx="4.5" ry="4.5"/><rect width="26" height="24" x="31" y="-279.64" fill="none" opacity=".133"/><path fill="#fff" d="m44 5c-2.216 0-4 1.784-4 4v0.81836c0-2.1153 1.784-3.8184 4-3.8184h14c2.216 0 4 1.7031 4 3.8184v-0.81836c0-2.216-1.784-4-4-4z" opacity=".1" transform="translate(-7,-283.64)"/></g><g id="button-insensitive" opacity=".5" transform="translate(7,283.64)"><rect width="22" height="22" x="67" y="-278.64" fill="#656565" opacity="1" rx="4" ry="4"/><rect width="23" height="23" x="66.5" y="-279.14" fill="none" stroke="#000" stroke-opacity=".118" opacity="1" rx="4.5" ry="4.5"/><rect width="26" height="24" x="65" y="-279.64" fill="none" opacity=".133"/><path fill="#fff" d="m78 5c-2.216 0-4 1.784-4 4v0.81836c0-2.1153 1.784-3.8184 4-3.8184h14c2.216 0 4 1.7031 4 3.8184v-0.81836c0-2.216-1.784-4-4-4z" opacity=".1" transform="translate(-7,-283.64)"/></g><g id="button-active" transform="translate(7,283.64)"><rect width="22" height="22" x="101" y="-278.64" fill="url(#linearGradient2007)" rx="4" ry="4"/><rect width="23" height="23" x="100.5" y="256.14" fill="none" stroke="#000" stroke-opacity=".118" rx="4.5" ry="4.5" transform="scale(1,-1)"/><rect width="26" height="24" x="99" y="-279.64" fill="none" opacity=".133"/><path fill="#fff" d="m112 5c-2.216 0-4 1.784-4 4v0.81836c0-2.1153 1.784-3.8184 4-3.8184h14c2.216 0 4 1.7031 4 3.8184v-0.81836c0-2.216-1.784-4-4-4z" opacity=".1" transform="translate(-7,-283.64)"/></g><g id="entry-bg" transform="translate(6,345.64)"><rect width="26" height="24" x="-3" y="-279.64" fill="#333"/><rect width="24" height="22" x="-2" y="-278.64" fill="#242424" rx="2.5" ry="2.5"/><rect width="25" height="23" x="-2.5" y="-279.14" fill="none" stroke="#4c4c4c" rx="4.5" ry="4.5"/></g><g id="entry-disabled-bg" transform="translate(6,345.64)"><rect width="26" height="24" x="65" y="-279.64" fill="#333"/><rect width="24" height="22" x="66" y="-278.64" fill="#2a2a2a" rx="2.5" ry="2.5"/><rect width="25" height="23" x="65.5" y="-279.14" fill="none" stroke="#4c4c4c" opacity=".55" rx="4.5" ry="4.5"/></g><g id="combo-entry" clip-path="url(#clipPath4466)" transform="translate(6,452.64)"><rect width="26" height="24" x="-3" y="-279.64" fill="#333" rx="0" ry="0"/><rect width="23" height="22" x="-2" y="-278.64" fill="#242424" rx="3" ry="3"/><rect width="24" height="23" x="-2.5" y="-279.14" fill="none" stroke="#4c4c4c" rx="4.5" ry="4.5"/><rect width="1" height="22" x="17" y="-278.64" fill="#4c4c4c" opacity=".3"/></g><g id="combo-entry-insensitive" clip-path="url(#clipPath4480)" transform="translate(-12,452.64)"><rect width="26" height="24" x="65" y="-279.64" fill="#333" rx="0" ry="0"/><rect width="23" height="22" x="66" y="-278.64" fill="#2a2a2a" rx="3" ry="3"/><rect width="24" height="23" x="65.5" y="-279.14" fill="none" stroke="#4c4c4c" opacity=".3" rx="4.5" ry="4.5"/><rect width="1" height="22" x="85" y="-278.64" fill="#4c4c4c" opacity=".3"/></g><g id="combo-entry-notebook" clip-path="url(#clipPath4466-9)" transform="translate(6,482.64)"><rect width="23" height="22" x="-2" y="-278.64" fill="#242424" rx="3" ry="3"/><rect width="24" height="23" x="-2.5" y="-279.14" fill="none" stroke="#4c4c4c" rx="4.5" ry="4.5"/><rect width="1" height="22" x="17" y="-278.64" fill="#4c4c4c" opacity=".3"/></g><g id="combo-entry-insensitive-notebook" clip-path="url(#clipPath4480-0)" transform="translate(-12,482.64)"><rect width="23" height="22" x="66" y="-278.64" fill="#2a2a2a" rx="3" ry="3"/><rect width="24" height="23" x="65.5" y="-279.14" fill="none" stroke="#4c4c4c" opacity=".3" rx="4.5" ry="4.5"/><rect width="1" height="22" x="85" y="-278.64" fill="#4c4c4c" opacity=".3"/></g><g id="combo-entry-button"><g clip-path="url(#clipPath4675)" transform="translate(20,423.64) translate(-18,90)"><rect width="22" height="22" x="-1" y="-278.64" fill="#656565" rx="3" ry="3"/><rect width="23" height="23" x="-1.5" y="-279.14" fill="none" stroke="#000" stroke-opacity=".118" rx="3.5" ry="3.5"/><rect width="26" height="24" x="-3" y="-279.64" fill="none" opacity=".133"/><path fill="#fff" d="m4 235c-1.662 0-3 1.338-3 3v0.86328c0-1.5864 1.338-2.8633 3-2.8633h16c1.662 0 3 1.2768 3 2.8633v-0.86328c0-1.662-1.338-3-3-3z" opacity=".1" transform="translate(-2,-513.64)"/></g></g><g id="combo-entry-button-insensitive" opacity=".5"><g clip-path="url(#clipPath4685)" transform="translate(-24,423.64) translate(-18,90)"><rect width="22" height="22" x="67" y="-278.64" fill="#656565" opacity="1" rx="3" ry="3"/><rect width="23" height="23" x="66.5" y="-279.14" fill="none" stroke="#000" stroke-opacity=".118" opacity="1" rx="3.5" ry="3.5"/><rect width="26" height="24" x="65" y="-279.64" fill="none" opacity=".133"/><path fill="#fff" d="m28 235c-1.662 0-3 1.338-3 3v0.86328c0-1.5864 1.338-2.8633 3-2.8633h16c1.662 0 3 1.2768 3 2.8633v-0.86328c0-1.662-1.338-3-3-3z" opacity=".1" transform="translate(42,-513.64)"/></g></g><g id="combo-entry-button-active" transform="translate(-34,423.64)"><g clip-path="url(#clipPath4695)" transform="translate(-18,90)"><rect width="22" height="22" x="101" y="-278.64" fill="url(#linearGradient2007)" rx="3" ry="3"/><rect width="23" height="23" x="100.5" y="256.14" fill="none" stroke="#000" stroke-opacity=".118" rx="3.5" ry="3.5" transform="scale(1,-1)"/><rect width="26" height="24" x="99" y="-279.64" fill="none" opacity=".133"/><path fill="#fff" d="m52 235c-1.662 0-3 1.338-3 3v0.86328c0-1.5864 1.338-2.8633 3-2.8633h16c1.662 0 3 1.2768 3 2.8633v-0.86328c0-1.662-1.338-3-3-3z" opacity=".1" transform="translate(52,-513.64)"/></g><rect width="1" height="22" x="86" y="-188.64" fill="#000" opacity=".1"/></g><g id="combo-entry-rtl" clip-path="url(#clipPath4466-1)" transform="matrix(-1,0,0,1,153,452.64)"><rect width="26" height="24" x="-23" y="-279.64" fill="#333" rx="0" ry="0" transform="scale(-1,1)"/><rect width="23" height="22" x="-21" y="-278.64" fill="#242424" rx="3" ry="3" transform="scale(-1,1)"/><rect width="24" height="23" x="-2.5" y="-279.14" fill="none" stroke="#4c4c4c" rx="4.5" ry="4.5"/><rect width="1" height="22" x="-18" y="-278.64" fill="#4c4c4c" opacity=".3" transform="scale(-1,1)"/></g><g id="combo-entry-insensitive-rtl" clip-path="url(#clipPath4480-4)" transform="matrix(-1,0,0,1,171,452.64)"><rect width="26" height="24" x="-91" y="-279.64" fill="#333" rx="0" ry="0" transform="scale(-1,1)"/><rect width="23" height="22" x="66" y="-278.64" fill="#2a2a2a" rx="3" ry="3"/><rect width="24" height="23" x="65.5" y="-279.14" fill="none" stroke="#4c4c4c" opacity=".55" rx="4.5" ry="4.5"/><rect width="1" height="22" x="-86" y="-278.64" fill="#4c4c4c" opacity=".3" transform="scale(-1,1)"/></g><g id="combo-entry-notebook-rtl" clip-path="url(#clipPath4466-9-0)" transform="matrix(-1,0,0,1,153,482.64)"><rect width="23" height="22" x="-21" y="-278.64" fill="#242424" rx="3" ry="3" transform="scale(-1,1)"/><rect width="24" height="23" x="-2.5" y="-279.14" fill="none" stroke="#4c4c4c" rx="4.5" ry="4.5"/><rect width="1" height="22" x="-18" y="-278.64" fill="#4c4c4c" opacity=".3" transform="scale(-1,1)"/></g><g id="combo-entry-insensitive-notebook-rtl" clip-path="url(#clipPath4480-0-0)" transform="matrix(-1,0,0,1,171,482.64)"><rect width="26" height="24" x="-91" y="-279.64" fill="#333" rx="0" ry="0" transform="scale(-1,1)"/><rect width="23" height="22" x="66" y="-278.64" fill="#2a2a2a" rx="3" ry="3"/><rect width="24" height="23" x="65.5" y="-279.14" fill="none" stroke="#4c4c4c" opacity=".55" rx="4.5" ry="4.5"/><rect width="1" height="22" x="-86" y="-278.64" fill="#4c4c4c" opacity=".3" transform="scale(-1,1)"/></g><g id="combo-entry-button-rtl"><g clip-path="url(#clipPath4675-4)" transform="matrix(-1,0,0,1,137,423.64) translate(-18,90)"><rect width="22" height="22" x="-1" y="-278.64" fill="#656565" rx="3" ry="3"/><rect width="23" height="23" x="-1.5" y="-279.14" fill="none" stroke="#000" stroke-opacity=".118" rx="3.5" ry="3.5"/><rect width="26" height="24" x="-3" y="-279.64" fill="none" opacity=".133"/><path fill="#fff" d="m137 235c-1.662 0-3 1.338-3 3v0.86328c0-1.5864 1.338-2.8633 3-2.8633h16c1.662 0 3 1.2768 3 2.8633v-0.86328c0-1.662-1.338-3-3-3z" opacity=".1" transform="matrix(-1,0,0,1,155,-513.64)"/></g></g><g id="combo-entry-button-insensitive-rtl"><g clip-path="url(#clipPath4685-4)" transform="matrix(-1,0,0,1,181,423.64) translate(-18,90)"><rect width="22" height="22" x="67" y="-278.64" fill="#656565" rx="3" ry="3"/><rect width="23" height="23" x="66.5" y="-279.14" fill="none" stroke="#000" stroke-opacity=".118" rx="3.5" ry="3.5"/><rect width="26" height="24" x="65" y="-279.64" fill="none" opacity=".133"/><path fill="#fff" d="m113 235c-1.662 0-3 1.338-3 3v0.86328c0-1.5864 1.338-2.8633 3-2.8633h16c1.662 0 3 1.2768 3 2.8633v-0.86328c0-1.662-1.338-3-3-3z" opacity=".1" transform="matrix(-1,0,0,1,199,-513.64)"/></g></g><g id="combo-entry-button-active-rtl" transform="matrix(-1,0,0,1,191,423.64)"><g clip-path="url(#clipPath4695-6)" transform="translate(-18,90)"><rect width="22" height="22" x="101" y="-278.64" fill="url(#linearGradient2007)" rx="3" ry="3"/><rect width="23" height="23" x="100.5" y="256.14" fill="none" stroke="#000" stroke-opacity=".118" rx="3.5" ry="3.5" transform="scale(1,-1)"/><rect width="26" height="24" x="99" y="-279.64" fill="none" opacity=".133"/><path fill="#fff" d="m89 235c-1.662 0-3 1.338-3 3v0.86328c0-1.5864 1.338-2.8633 3-2.8633h16c1.662 0 3 1.2768 3 2.8633v-0.86328c0-1.662-1.338-3-3-3z" opacity=".1" transform="matrix(-1,0,0,1,209,-513.64)"/></g><rect width="1" height="22" x="86" y="-188.64" fill="#000" opacity=".1"/></g><g id="down-background" clip-path="url(#clipPath4407)" transform="translate(-10,570.64)"><rect width="26" height="25" x="-3" y="-280.64" fill="none"/><rect width="22" height="22" x="-1" y="-278.64" fill="#656565" rx="3" ry="3"/><rect width="23" height="23" x="-1.5" y="-279.14" fill="none" stroke="#000" stroke-opacity=".118" rx="3.5" ry="3.5"/></g><g id="up-background" clip-path="url(#clipPath4413)" transform="translate(-10,560.64)"><rect width="26" height="25" x="-3" y="-279.64" fill="none"/><rect width="22" height="22" x="-1" y="-278.64" fill="#656565" rx="3" ry="3"/><rect width="23" height="23" x="-1.5" y="-279.14" fill="none" stroke="#000" stroke-opacity=".118" rx="3.5" ry="3.5"/><path fill="#fff" d="m-8 282c-1.662 0-3 1.338-3 3v0.86328c0-1.5864 1.338-2.8633 3-2.8633h16c1.662 0 3 1.2768 3 2.8633v-0.86328c0-1.662-1.338-3-3-3z" opacity=".1" transform="translate(10,-560.64)"/></g><g id="down-background-disable" clip-path="url(#clipPath4407-2)" opacity=".5" transform="translate(6,570.64)"><rect width="26" height="25" x="-3" y="-280.64" fill="none" opacity="1"/><rect width="22" height="22" x="-1" y="-278.64" fill="#656565" opacity="1" rx="3" ry="3"/><rect width="23" height="23" x="-1.5" y="-279.14" fill="none" stroke="#000" stroke-opacity=".118" opacity=".55" rx="3.5" ry="3.5"/></g><g id="up-background-disable" clip-path="url(#clipPath4413-2)" opacity=".5" transform="translate(6,560.64)"><rect width="26" height="25" x="-3" y="-279.64" fill="none" opacity="1"/><rect width="22" height="22" x="-1" y="-278.64" fill="#656565" opacity="1" rx="3" ry="3"/><rect width="23" height="23" x="-1.5" y="-279.14" fill="none" stroke="#000" stroke-opacity=".118" opacity=".55" rx="3.5" ry="3.5"/><path fill="#fff" d="m8 282c-1.662 0-3 1.338-3 3v0.86328c0-1.5864 1.338-2.8633 3-2.8633h16c1.662 0 3 1.2768 3 2.8633v-0.86328c0-1.662-1.338-3-3-3z" opacity=".1" transform="translate(-6,-560.64)"/></g><g id="down-background-rtl" clip-path="url(#clipPath4407-1)" transform="matrix(-1,0,0,1,75,570.64)"><rect width="26" height="25" x="-3" y="-280.64" fill="none"/><rect width="22" height="22" x="-1" y="-278.64" fill="#656565" rx="3" ry="3"/><rect width="23" height="23" x="-1.5" y="-279.14" fill="none" stroke="#000" stroke-opacity=".118" rx="3.5" ry="3.5"/></g><g id="up-background-rtl" clip-path="url(#clipPath4413-9)" transform="matrix(-1,0,0,1,75,560.64)"><rect width="26" height="25" x="-3" y="-279.64" fill="none"/><rect width="22" height="22" x="-1" y="-278.64" fill="#656565" rx="3" ry="3"/><rect width="23" height="23" x="-1.5" y="-279.14" fill="none" stroke="#000" stroke-opacity=".118" rx="3.5" ry="3.5"/><path fill="#fff" d="m57 282c-1.662 0-3 1.338-3 3v0.86328c0-1.5864 1.338-2.8633 3-2.8633h16c1.662 0 3 1.2768 3 2.8633v-0.86328c0-1.662-1.338-3-3-3z" opacity=".1" transform="matrix(-1,0,0,1,75,-560.64)"/></g><g id="down-background-disable-rtl" clip-path="url(#clipPath4407-2-4)" opacity=".5" transform="matrix(-1,0,0,1,59,570.64)"><rect width="26" height="25" x="-3" y="-280.64" fill="none" opacity="1"/><rect width="22" height="22" x="-1" y="-278.64" fill="#656565" opacity="1" rx="3" ry="3"/><rect width="23" height="23" x="-1.5" y="-279.14" fill="none" stroke="#000" stroke-opacity=".118" opacity=".55" rx="3.5" ry="3.5"/></g><g id="up-background-disable-rtl" clip-path="url(#clipPath4413-2-6)" opacity=".5" transform="matrix(-1,0,0,1,59,560.64)"><rect width="26" height="25" x="-3" y="-279.64" fill="none" opacity="1"/><rect width="22" height="22" x="-1" y="-278.64" fill="#656565" opacity="1" rx="3" ry="3"/><rect width="23" height="23" x="-1.5" y="-279.14" fill="none" stroke="#000" stroke-opacity=".118" opacity=".55" rx="3.5" ry="3.5"/><path fill="#fff" d="m41 282c-1.662 0-3 1.338-3 3v0.86328c0-1.5864 1.338-2.8633 3-2.8633h16c1.662 0 3 1.2768 3 2.8633v-0.86328c0-1.662-1.338-3-3-3z" opacity=".1" transform="matrix(-1,0,0,1,59,-560.64)"/></g><g id="minus" transform="translate(-198,175.64)"><rect width="11" height="11" x="448" y="-101.64" fill="#4c4c4c" rx="2.208" ry="2.596"/><rect width="9" height="9" x="449" y="-100.64" fill="#242424" rx="1" ry="1"/><rect width="5" height="1" x="451" y="-96.638" fill="#5c616c" rx="1" ry="1"/></g><g id="plus" transform="translate(-198,175.64)"><rect width="11" height="11" x="434" y="-101.64" fill="#4c4c4c" rx="1.486" ry="1.722"/><rect width="9" height="9" x="435" y="-100.64" fill="#242424" rx="1" ry="1"/><rect width="5" height="1" x="437" y="-96.638" fill="#5c616c" rx="1" ry="1"/><rect width="5" height="1" x="-98.638" y="-440" fill="#5c616c" rx="1" ry="1" transform="rotate(90)"/></g><g id="menuitem" transform="translate(0,285.64)"><rect width="15" height="25" x="233" y="-154.64" fill="url(#linearGradient5053)" rx="0" ry="0"/></g><g id="handle-v" transform="translate(18,283.64)"><rect width="2" height="24" x="210" y="-189.64" fill="none"/><rect width="2" height="2" x="210" y="-183.64" fill="#4c4c4c"/><rect width="2" height="2" x="210" y="-178.64" fill="#4c4c4c"/><rect width="2" height="2" x="210" y="-173.64" fill="#4c4c4c"/></g><g id="handle-h" transform="rotate(90,86.18,-18.82)"><rect width="2" height="24" x="210" y="-189.64" fill="none"/><rect width="2" height="2" x="210" y="-183.64" fill="#4c4c4c"/><rect width="2" height="2" x="210" y="-178.64" fill="#4c4c4c"/><rect width="2" height="2" x="210" y="-173.64" fill="#4c4c4c"/></g><rect id="progressbar_v" width="30" height="8" x="223" y="201" fill="url(#linearGradient5051)" rx="4" ry="4"/><rect id="progressbar" width="30" height="8" x="214" y="-242" fill="url(#linearGradient5049)" rx="4" ry="4" transform="rotate(90)"/><g id="trough-progressbar_v" transform="translate(18,283.64)"><rect width="32" height="10" x="239" y="-83.638" fill="none" opacity=".55" rx="0" ry="0"/><rect width="30" height="8" x="247" y="201" fill="#4c4c4c" rx="4" ry="4" transform="translate(-7,-283.64)"/></g><circle id="slider" cx="235.5" cy="263.5" r="7" fill="#fff" stroke="#000" stroke-opacity=".118" stroke-width="2" style="paint-order:stroke fill markers"/><circle id="slider-prelight" cx="254.5" cy="263.5" r="7" fill="#e6e6e6" stroke="#000" stroke-opacity=".118" stroke-width="2" style="paint-order:stroke markers fill"/><g id="trough-horizontal" transform="translate(13)"><rect width="34" height="15" x="203" y="276" fill="none" rx="0" ry="0"/><rect width="24" height="5" x="208" y="281" fill="#4c4c4c" rx="2.5" ry="2.5"/></g><g id="trough-vertical" transform="rotate(90,216.5,299.5)"><rect width="34" height="15" x="203" y="276" fill="none" rx="0" ry="0"/><rect width="24" height="5" x="208" y="281" fill="#4c4c4c" rx="2.5" ry="2.5"/></g><g id="slider-horiz-prelight" transform="translate(-7,93)"><rect width="28" height="13" x="206" y="277" fill="none" rx="0" ry="0"/><rect width="24" height="6" x="208" y="281" fill="gray" rx="3" ry="3"/></g><rect id="notebook" width="9" height="9" x="405.5" y="6.5" fill="#242424" stroke="#4c4c4c"/><g id="tab-top-active" clip-path="url(#clipPath6057)" transform="translate(423 -1016.4)"><rect width="30" height="33" fill="#4c4c4c" transform="translate(0,1022.4)"/><rect width="28" height="31" x="1" y="1" fill="#242424" stroke-width="0" rx="0" ry="0" transform="translate(0,1022.4)"/></g><g id="tab-right-active" clip-path="url(#clipPath6057-7)" transform="rotate(90,752.18,758.18)"><rect width="30" height="33" fill="#4c4c4c" transform="translate(0,1022.4)"/><rect width="28" height="31" x="1" y="1" fill="#242424" stroke-width="0" rx="0" ry="0" transform="translate(0,1022.4)"/></g><g id="tab-bottom-active" clip-path="url(#clipPath6057-4)" transform="matrix(1 0 0 -1 423 1092.4)"><rect width="30" height="33" fill="#4c4c4c" transform="translate(0,1022.4)"/><rect width="28" height="31" x="1" y="1" fill="#242424" stroke-width="0" rx="0" ry="0" transform="translate(0,1022.4)"/></g><g id="tab-left-active" clip-path="url(#clipPath6057-9)" transform="rotate(-90,-247.18,317.18)"><rect width="30" height="33" fill="#4c4c4c" transform="translate(0,1022.4)"/><rect width="28" height="31" x="1" y="1" fill="#242424" stroke-width="0" rx="0" ry="0" transform="translate(0,1022.4)"/></g><g id="notebook-gap-horiz" transform="translate(11)"><rect width="4" height="2" x="394" y="19" fill="none" opacity=".377"/><rect width="2" height="2" x="395" y="19" fill="#242424"/></g><g id="notebook-gap-vert" transform="rotate(90,403.5,27.5)"><rect width="4" height="2" x="394" y="19" fill="none" opacity=".377"/><rect width="2" height="2" x="395" y="19" fill="#242424"/></g><rect id="inline-toolbar" width="23" height="33" x="407.5" y="109.5" fill="#2b2b2b" stroke="#4c4c4c" clip-path="url(#clipPath6162)" transform="translate(-4.5)"/><g id="toolbar" transform="translate(-4.5)"><rect width="24" height="32" x="437" y="111" fill="#333"/><rect width="24" height="1" x="437" y="142" fill="#4c4c4c"/></g><g id="tree_header" transform="translate(18,283.64)"><rect width="10" height="28" x="410" y="-87.638" fill="#242424"/><rect width="1" height="28" x="419" y="-87.638" fill="#000" opacity=".05"/></g><rect id="null" width="15" height="15" x="448" y="196" fill="none" opacity=".05"/><g id="menubar_button" transform="translate(18,283.64)"><path id="wsad" fill="url(#linearGradient1559)" d="m245-152.64h25v15h-25v-13z"/></g><g id="trough-progressbar" transform="rotate(90,110.68,84.682)"><rect width="32" height="10" x="239" y="-83.638" fill="none" opacity=".55" rx="0" ry="0"/><rect width="30" height="8" x="247" y="201" fill="#4c4c4c" rx="4" ry="4" transform="translate(-7,-283.64)"/></g><rect id="focus-line" width="4" height="4" x="78.5" y="-294.5" fill="none" stroke="#4c4c4c" stroke-opacity=".673" transform="rotate(90)"/><g id="trough-horizontal-active" transform="translate(44)"><rect width="34" height="15" x="203" y="276" fill="none" rx="0" ry="0"/><rect width="24" height="5" x="208" y="281" fill="url(#linearGradient5043)" rx="2.5" ry="2.5"/></g><g id="trough-vertical-active" transform="rotate(90,232,315)"><rect width="34" height="15" x="203" y="276" fill="none" rx="0" ry="0"/><rect width="24" height="5" x="208" y="281" fill="url(#linearGradient5043)" rx="2.5" ry="2.5"/></g><g id="slider-horiz-active" transform="translate(-7,80)"><rect width="28" height="13" x="206" y="277" fill="none" rx="0" ry="0"/><rect width="24" height="6" x="208" y="281" fill="#666" rx="3" ry="3"/></g><g id="slider-horiz" transform="translate(-7,67)"><rect width="28" height="13" x="206" y="277" fill="none" rx="0" ry="0"/><rect width="24" height="6" x="208" y="281" fill="#4d4d4d" rx="3" ry="3"/></g><g id="slider-vert-prelight" transform="rotate(-90,283.5,292.5)"><rect width="28" height="13" x="206" y="277" fill="none" rx="0" ry="0"/><rect width="24" height="6" x="208" y="281" fill="gray" rx="3" ry="3"/></g><g id="slider-vert-active" transform="rotate(-90,277,299)"><rect width="28" height="13" x="206" y="277" fill="none" rx="0" ry="0"/><rect width="24" height="6" x="208" y="281" fill="#666" rx="3" ry="3"/></g><g id="slider-vert" transform="rotate(-90,270.5,305.5)"><rect width="28" height="13" x="206" y="277" fill="none" rx="0" ry="0"/><rect width="24" height="6" x="208" y="281" fill="#4d4d4d" rx="3" ry="3"/></g><g id="trough-scrollbar-vert" transform="translate(7,283.64)"><rect id="sdcdscds" width="15" height="15" x="241" y="92.362" fill="#363636" rx="0" ry="0"/><rect width="15" height="1" x="-107.36" y="241" fill="#4c4c4c" transform="rotate(-90)"/></g><g id="trough-scrollbar-horiz" transform="rotate(90,120.68,255.68)"><rect width="15" height="15" x="241" y="92.362" fill="#363636" rx="0" ry="0"/><rect width="15" height="1" x="-107.36" y="241" fill="#4c4c4c" transform="rotate(-90)"/></g><g id="slider-vert-insens" transform="rotate(-90,290,286)"><rect width="28" height="13" x="206" y="277" fill="none" rx="0" ry="0"/><rect width="24" height="6" x="208" y="281" fill="#404040" rx="3" ry="3"/></g><g id="slider-horiz-insens" transform="translate(-7,106)"><rect width="28" height="13" x="206" y="277" fill="none" rx="0" ry="0"/><rect width="24" height="6" x="208" y="281" fill="#404040" rx="3" ry="3"/></g><g id="entry-border-bg" transform="translate(6,315.64)"><path fill="#333" d="m-4-280.64v26h28v-26h-27zm2 2h24v22h-24z"/><path fill="#333" d="m110 66v24h26v-24zm3.5 1h19c1.385 0 2.5 1.115 2.5 2.5v17c0 1.385-1.115 2.5-2.5 2.5h-19c-1.385 0-2.5-1.115-2.5-2.5v-17c0-1.385 1.115-2.5 2.5-2.5z" transform="translate(-113,-345.64)"/><rect width="25" height="23" x="-2.5" y="-279.14" fill="none" stroke="#4c4c4c" rx="4.5" ry="4.5"/></g><rect id="entry-background" width="6" height="18" x="74" y="38" fill="#242424" rx="0" ry="0"/><rect id="entry-background-disabled" width="6" height="18" x="87" y="38" fill="#2a2a2a" rx="0" ry="0"/><g id="combo-entry-border" clip-path="url(#clipPath4466-3)" transform="translate(168,452.64)"><path fill="#333" d="m-43 149v24h26v-24zm3 1h18c1.108 0 2 0.892 2 2v18c0 1.108-0.892 2-2 2h-18c-1.108 0-2-0.892-2-2v-18c0-1.108 0.892-2 2-2z" transform="translate(40,-428.64)"/><rect width="24" height="23" x="-2.5" y="-279.14" fill="none" stroke="#4c4c4c" rx="4.5" ry="4.5"/><rect width="1" height="22" x="17" y="-278.64" fill="#4c4c4c" opacity=".3"/></g><g id="combo-entry-border-rtl" clip-path="url(#clipPath4466-3-8)" transform="matrix(-1,0,0,1,183,482.64)"><path fill="#333" d="m-43 149v24h26v-24zm3 1h18c1.108 0 2 0.892 2 2v18c0 1.108-0.892 2-2 2h-18c-1.108 0-2-0.892-2-2v-18c0-1.108 0.892-2 2-2z" transform="translate(40,-428.64)"/><rect width="24" height="23" x="-2.5" y="-279.14" fill="none" stroke="#4c4c4c" rx="4.5" ry="4.5"/><rect width="1" height="22" x="17" y="-278.64" fill="#4c4c4c" opacity=".3"/></g><g id="menubar" transform="translate(39.5,283.64)"><rect width="24" height="32" x="423" y="-172.64" fill="#373737"/><rect width="24" height="1" x="423" y="-141.64" fill="#fff" opacity=".1"/></g><rect id="frame" width="9" height="9" x="430.5" y="243.5" fill="#333" stroke="#4c4c4c"/><g id="line-v" transform="rotate(-90,423.82,-42.82)"><rect width="2" height="2" x="275" y="-179.64" fill="none" opacity=".05"/><rect width="2" height="1" x="275" y="-179.64" fill="#4c4c4c"/></g><g id="line-h" transform="rotate(180,283.5,-36.82)"><rect width="2" height="2" x="275" y="-179.64" fill="none" opacity=".05"/><rect width="2" height="1" x="275" y="-179.64" fill="#4c4c4c"/></g><rect id="frame-gap-end" width="2" height="1" x="447" y="246" fill="#4c4c4c"/><rect id="frame-gap-start" width="2" height="1" x="447" y="249" fill="#4c4c4c"/><g id="entry-notebook" transform="translate(6,377.64)"><rect width="26" height="24" x="-3" y="-279.64" fill="#242424" rx="0" ry="0"/><rect width="25" height="23" x="-2.5" y="-279.14" fill="none" stroke="#4c4c4c" rx="4.5" ry="4.5"/><rect width="24" height="22" x="-2" y="-278.64" fill="#242424" rx="4" ry="4"/></g><g id="entry-disabled-notebook" transform="translate(6,377.64)"><rect width="26" height="24" x="65" y="-279.64" fill="#242424" rx="0" ry="0"/><rect width="24" height="22" x="66" y="-278.64" fill="#2a2a2a" rx="4" ry="4"/><rect width="25" height="23" x="65.5" y="-279.14" fill="none" stroke="#4c4c4c" opacity=".75" rx="4.5" ry="4.5"/></g><g id="entry-toolbar" transform="translate(6,409.64)"><rect width="26" height="24" x="-3" y="-279.64" fill="#333" rx="0" ry="0"/><rect width="25" height="23" x="-2.5" y="-279.14" fill="none" stroke="#4c4c4c" rx="4.5" ry="4.5"/><rect width="24" height="22" x="-2" y="-278.64" fill="#242424" rx="4" ry="4"/></g><g id="entry-disabled-toolbar" transform="translate(6,409.64)"><rect width="26" height="24" x="65" y="-279.64" fill="#333" rx="0" ry="0"/><rect width="24" height="22" x="66" y="-278.64" fill="#2a2a2a" rx="4" ry="4"/><rect width="25" height="23" x="65.5" y="-279.14" fill="none" stroke="#4c4c4c" opacity=".75" rx="4.5" ry="4.5"/></g><path id="border" fill="#4c4c4c" d="m447 252h1v1h-1z" style="paint-order:stroke fill markers"/><path id="menu-separator" fill="#3f3f3f" d="m449 251h2v2h-2z" style="paint-order:stroke fill markers"/><g id="menu-arrow" fill="#a1a4aa"><path stroke-width="1.9" d="m-22 35.362h12v12h-12z" opacity="0" transform="matrix(0 1 1 0 5.6378 367)"/><path fill="#a1a4aa" d="m-16 36.362h5l-5 7-5-7z" transform="matrix(0 1 1 0 5.6378 367)"/></g><g id="menu-arrow-prelight" fill="#fff"><path stroke-width="1.9" d="m-22 35.362h12v12h-12z" opacity="0" transform="matrix(0 1 1 0 20.638 367)"/><path fill="#fff" d="m-16 36.362h5l-5 7-5-7z" transform="matrix(0 1 1 0 20.638 367)"/></g><g id="arrow-down" fill="#5c616c"><g fill="#9398a2" transform="matrix(.74646 0 0 .8075 1.5373 323.79) translate(-181,-747)"><path d="m183.78 751a1.0001 1.0001 0 0 0-0.5 1.7188l5 5 0.71875 0.6875 0.71875-0.6875 5-5a1.0165 1.0165 0 1 0-1.4375-1.4375l-4.2812 4.2812-4.2812-4.2812a1.0001 1.0001 0 0 0-0.9375-0.28125z" color="#000" style="text-decoration-line:none;text-indent:0;text-transform:none"/><rect width="1" height="1" x="-752" y="-195" rx="1.238" ry="1.34" transform="matrix(0,-1,-1,0,0,0)"/><rect width="1" height="1" x="-752" y="-184" rx="1.238" ry="1.34" transform="matrix(0,-1,-1,0,0,0)"/></g></g><g id="arrow-down-insens" fill="#5c616c"><g fill="#5c616c"><path fill="#5c616c" d="m14.777 290a0.74654 0.80758 0 0 0-0.16406 0.0195 0.74654 0.80758 0 0 0-0.0918 0.0254c-0.03755-0.0137-0.07527-0.0254-0.11719-0.0254-0.20677 0-0.375 0.18062-0.375 0.4043 0 0.0377 0.01066 0.0709 0.01953 0.10547a0.74654 0.80758 0 0 0 0.19141 0.8789l3.7324 4.0371 0.53711 0.55469 0.53516-0.55469 3.7324-4.0371a0.75876 0.8208 0 0 0 0.18359-0.83984c0.01625-0.0454 0.02734-0.0928 0.02734-0.14453 0-0.22368-0.16628-0.4043-0.37305-0.4043-0.04826 0-0.09446 0.0114-0.13672 0.0293a0.75876 0.8208 0 0 0-0.77344 0.19726l-3.1953 3.457-3.1973-3.457a0.74654 0.80758 0 0 0-0.53515-0.24606z" color="#000" transform="matrix(.74646 0 0 .8075 12.537 323.79) translate(-181,-747) matrix(1.3396,0,0,1.2384,164.2,391.84)" style="text-decoration-line:none;text-indent:0;text-transform:none"/></g></g><g id="arrow-down-prelight" fill="#5c616c"><g fill="#5c616c"><path fill="#c7cacf" d="m25.777 290a0.74654 0.80758 0 0 0-0.16406 0.0195 0.74654 0.80758 0 0 0-0.0918 0.0254c-0.03755-0.0137-0.07527-0.0254-0.11719-0.0254-0.20677 0-0.375 0.18062-0.375 0.4043 0 0.0377 0.01066 0.0709 0.01953 0.10547a0.74654 0.80758 0 0 0 0.19141 0.8789l3.7324 4.0371 0.53711 0.55469 0.53516-0.55469 3.7324-4.0371a0.75876 0.8208 0 0 0 0.18359-0.83984c0.01625-0.0454 0.02734-0.0928 0.02734-0.14453 0-0.22368-0.16628-0.4043-0.37305-0.4043-0.04825 0-0.09446 0.0114-0.13672 0.0293a0.75876 0.8208 0 0 0-0.77344 0.19726l-3.1953 3.457-3.1973-3.457a0.74654 0.80758 0 0 0-0.53515-0.24606z" color="#000" transform="matrix(.74646 0 0 .8075 23.537 323.79) translate(-181,-747) matrix(1.3396,0,0,1.2384,149.47,391.84)" style="text-decoration-line:none;text-indent:0;text-transform:none"/></g></g><g id="arrow-left" fill="#5c616c"><g fill="#9398a2" transform="matrix(0 .74646 -.8075 0 13.211 333.54) translate(-181,-747)"><path d="m183.78 751a1.0001 1.0001 0 0 0-0.5 1.7188l5 5 0.71875 0.6875 0.71875-0.6875 5-5a1.0165 1.0165 0 1 0-1.4375-1.4375l-4.2812 4.2812-4.2812-4.2812a1.0001 1.0001 0 0 0-0.9375-0.28125z" color="#000" style="text-decoration-line:none;text-indent:0;text-transform:none"/><rect width="1" height="1" x="-752" y="-195" rx="1.238" ry="1.34" transform="matrix(0,-1,-1,0,0,0)"/><rect width="1" height="1" x="-752" y="-184" rx="1.238" ry="1.34" transform="matrix(0,-1,-1,0,0,0)"/></g></g><g id="arrow-left-insens" fill="#5c616c"><g fill="#5c616c"><path fill="#5c616c" d="m20.18 298a0.80758 0.74654 0 0 0-0.58789 0.24023l-4.0371 3.7324-0.55469 0.53711 0.55469 0.53515 4.0371 3.7324a0.8208 0.75876 0 0 0 0.83984 0.1836c0.04538 0.0163 0.09279 0.0273 0.14453 0.0273 0.22368 0 0.4043-0.16627 0.4043-0.37305 0-0.0482-0.01142-0.0944-0.0293-0.13671a0.8208 0.75876 0 0 0-0.19727-0.77344l-3.457-3.1953 3.457-3.1973a0.80758 0.74654 0 0 0 0.22656-0.69922 0.80758 0.74654 0 0 0-0.02539-0.0918c0.01366-0.0376 0.02539-0.0753 0.02539-0.11718 0-0.20677-0.18062-0.375-0.4043-0.375-0.03773 0-0.07088 0.0107-0.10547 0.0195a0.80758 0.74654 0 0 0-0.29101-0.0488z" color="#000" transform="matrix(0 .74646 -.8075 0 24.211 333.54) translate(-181,-747) matrix(0,-1.2384,1.3396,0,-216.26,776.98)" style="text-decoration-line:none;text-indent:0;text-transform:none"/></g></g><g id="arrow-left-prelight" fill="#5294e2"><g fill="#5294e2"><path fill="#c7cacf" d="m31.18 298a0.80758 0.74654 0 0 0-0.58789 0.24023l-4.0371 3.7324-0.55469 0.53711 0.55469 0.53515 4.0371 3.7324a0.8208 0.75876 0 0 0 0.83984 0.1836c0.04538 0.0163 0.09279 0.0273 0.14453 0.0273 0.22368 0 0.4043-0.16627 0.4043-0.37305 0-0.0482-0.01142-0.0944-0.0293-0.13671a0.8208 0.75876 0 0 0-0.19727-0.77344l-3.457-3.1953 3.457-3.1973a0.80758 0.74654 0 0 0 0.22656-0.69922 0.80758 0.74654 0 0 0-0.02539-0.0918c0.01366-0.0376 0.02539-0.0753 0.02539-0.11718 0-0.20677-0.18062-0.375-0.4043-0.375-0.03773 0-0.07088 0.0107-0.10547 0.0195a0.80758 0.74654 0 0 0-0.29101-0.0488z" color="#000" transform="matrix(0 .74646 -.8075 0 35.211 333.54) translate(-181,-747) matrix(0,-1.2384,1.3396,0,-216.26,790.6)" style="text-decoration-line:none;text-indent:0;text-transform:none"/></g></g><g id="arrow-right-prelight" fill="#5294e2"><g fill="#5294e2"><path fill="#c7cacf" d="m26.82 309a0.80758 0.74654 0 0 0-0.29102 0.0488c-0.03459-9e-3 -0.06774-0.0195-0.10547-0.0195-0.22368 0-0.4043 0.16823-0.4043 0.375 0 0.0419 0.01173 0.0796 0.02539 0.11718a0.80758 0.74654 0 0 0-0.02539 0.0918 0.80758 0.74654 0 0 0 0.22656 0.69922l3.457 3.1973-3.457 3.1953a0.8208 0.75876 0 0 0-0.19727 0.77344c-0.01788 0.0423-0.0293 0.0885-0.0293 0.13671 0 0.20678 0.18062 0.37305 0.4043 0.37305 0.05174 0 0.09915-0.0111 0.14453-0.0273a0.8208 0.75876 0 0 0 0.83984-0.1836l4.0371-3.7325 0.55469-0.53515-0.55469-0.53711-4.0371-3.7324a0.80758 0.74654 0 0 0-0.58789-0.24023z" color="#000" transform="matrix(0 .74646 .8075 0 22.789 344.54) translate(-181,-747) matrix(0,1.2384,1.3396,0,-230.99,718.78)" style="text-decoration-line:none;text-indent:0;text-transform:none"/></g></g><g id="arrow-right-insens" fill="#5c616c"><g fill="#5c616c"><path fill="#5c616c" d="m15.82 309a0.80758 0.74654 0 0 0-0.29102 0.0488c-0.03459-9e-3 -0.06774-0.0195-0.10547-0.0195-0.22368 0-0.4043 0.16823-0.4043 0.375 0 0.0419 0.01173 0.0796 0.02539 0.11718a0.80758 0.74654 0 0 0-0.02539 0.0918 0.80758 0.74654 0 0 0 0.22656 0.69922l3.457 3.1973-3.457 3.1953a0.8208 0.75876 0 0 0-0.19727 0.77344c-0.01788 0.0423-0.0293 0.0885-0.0293 0.13671 0 0.20678 0.18062 0.37305 0.4043 0.37305 0.05174 0 0.09915-0.0111 0.14453-0.0273a0.8208 0.75876 0 0 0 0.83984-0.1836l4.0371-3.7325 0.55469-0.53515-0.55469-0.53711-4.0371-3.7324a0.80758 0.74654 0 0 0-0.58789-0.24023z" color="#000" transform="matrix(0 .74646 .8075 0 11.789 344.54) translate(-181,-747) matrix(0,1.2384,1.3396,0,-230.99,732.4)" style="text-decoration-line:none;text-indent:0;text-transform:none"/></g></g><g id="arrow-right" fill="#5c616c"><g fill="#9398a2" transform="matrix(0 .74646 .8075 0 .7894 344.54) translate(-181,-747)"><path d="m183.78 751a1.0001 1.0001 0 0 0-0.5 1.7188l5 5 0.71875 0.6875 0.71875-0.6875 5-5a1.0165 1.0165 0 1 0-1.4375-1.4375l-4.2812 4.2812-4.2812-4.2812a1.0001 1.0001 0 0 0-0.9375-0.28125z" color="#000" style="text-decoration-line:none;text-indent:0;text-transform:none"/><rect width="1" height="1" x="-752" y="-195" rx="1.238" ry="1.34" transform="matrix(0,-1,-1,0,0,0)"/><rect width="1" height="1" x="-752" y="-184" rx="1.238" ry="1.34" transform="matrix(0,-1,-1,0,0,0)"/></g></g><g id="arrow-up" fill="#5c616c"><g fill="#9398a2" transform="matrix(.74646 0 0 -.8075 1.5373 366.21) translate(-181,-747)"><path d="m183.78 751a1.0001 1.0001 0 0 0-0.5 1.7188l5 5 0.71875 0.6875 0.71875-0.6875 5-5a1.0165 1.0165 0 1 0-1.4375-1.4375l-4.2812 4.2812-4.2812-4.2812a1.0001 1.0001 0 0 0-0.9375-0.28125z" color="#000" style="text-decoration-line:none;text-indent:0;text-transform:none"/><rect width="1" height="1" x="-752" y="-195" rx="1.238" ry="1.34" transform="matrix(0,-1,-1,0,0,0)"/><rect width="1" height="1" x="-752" y="-184" rx="1.238" ry="1.34" transform="matrix(0,-1,-1,0,0,0)"/></g></g><g id="arrow-up-insens" fill="#5c616c"><g fill="#5c616c"><path fill="#5c616c" d="m18.51 320-0.53711 0.55469-3.7324 4.0371a0.74654 0.80758 0 0 0-0.19141 0.8789c-0.0089 0.0346-0.01953 0.0677-0.01953 0.10547 0 0.22368 0.16823 0.4043 0.375 0.4043 0.04192 0 0.07963-0.0117 0.11719-0.0254a0.74654 0.80758 0 0 0 0.0918 0.0254 0.74654 0.80758 0 0 0 0.69922-0.22656l3.1973-3.457 3.1953 3.457a0.75876 0.8208 0 0 0 0.77344 0.19726c0.04226 0.0179 0.08846 0.0293 0.13672 0.0293 0.20677 0 0.37305-0.18062 0.37305-0.4043 0-0.0517-0.01109-0.0991-0.02734-0.14453a0.75876 0.8208 0 0 0-0.1836-0.83984l-3.7324-4.0371z" color="#000" transform="matrix(.74646 0 0 -.8075 12.537 366.21) translate(-181,-747) matrix(1.3396,0,0,-1.2384,164.2,1154.7)" style="text-decoration-line:none;text-indent:0;text-transform:none"/></g></g><g id="arrow-up-prelight" fill="#5294e2"><g fill="#5294e2"><path fill="#c7cacf" d="m29.51 320-0.53711 0.55469-3.7324 4.0371a0.74654 0.80758 0 0 0-0.19141 0.8789c-0.0089 0.0346-0.01953 0.0677-0.01953 0.10547 0 0.22368 0.16823 0.4043 0.375 0.4043 0.04192 0 0.07963-0.0117 0.11719-0.0254a0.74654 0.80758 0 0 0 0.0918 0.0254 0.74654 0.80758 0 0 0 0.69922-0.22656l3.1973-3.457 3.1953 3.457a0.75876 0.8208 0 0 0 0.77344 0.19726c0.04226 0.0179 0.08846 0.0293 0.13672 0.0293 0.20677 0 0.37305-0.18062 0.37305-0.4043 0-0.0517-0.01109-0.0991-0.02734-0.14453a0.75876 0.8208 0 0 0-0.1836-0.83984l-3.7324-4.0371z" color="#000" transform="matrix(.74646 0 0 -.8075 23.537 366.21) translate(-181,-747) matrix(1.3396,0,0,-1.2384,149.47,1154.7)" style="text-decoration-line:none;text-indent:0;text-transform:none"/></g></g><g id="arrow-down-small" transform="translate(40 327)"><rect width="9" height="6" fill="none"/><g fill="#000"><g fill="#9398a2" transform="matrix(.58058 0 0 .67292 -.13764 -1.6755) translate(-181,-747)"><path d="m183.78 751a1.0001 1.0001 0 0 0-0.5 1.7188l5 5 0.71875 0.6875 0.71875-0.6875 5-5a1.0165 1.0165 0 1 0-1.4375-1.4375l-4.2812 4.2812-4.2812-4.2812a1.0001 1.0001 0 0 0-0.9375-0.28125z" color="#000" style="text-decoration-line:none;text-indent:0;text-transform:none"/><rect width="1" height="1" x="-752" y="-195" rx="1.486" ry="1.722" transform="matrix(0,-1,-1,0,0,0)"/><rect width="1" height="1" x="-752" y="-184" rx="1.486" ry="1.722" transform="matrix(0,-1,-1,0,0,0)"/></g></g></g><g id="arrow-down-small-insens" transform="translate(50 327)"><rect width="9" height="6" fill="none"/><g fill="#5c616c"><g fill="#5c616c"><path fill="#5c616c" d="m51.605 291a0.58064 0.67299 0 0 0-0.12891 0.0156 0.58064 0.67299 0 0 0-0.07227 0.0215c-0.02864-0.0109-0.05797-0.0215-0.08984-0.0215-0.16082 0-0.29102 0.1515-0.29102 0.3379 0 0.0245 0.01721 0.0395 0.02148 0.0625a0.58064 0.67299 0 0 0 0.14258 0.75586l2.9023 3.3652 0.41797 0.46289 0.41602-0.46289 2.9023-3.3652a0.59014 0.684 0 0 0 0.13281-0.73047c0.0083-0.0314 0.03125-0.0532 0.03125-0.0879 0-0.1864-0.12824-0.3379-0.28906-0.3379-0.03743 0-0.07267 0.0106-0.10547 0.0254a0.59014 0.684 0 0 0-0.60352 0.16406l-2.4844 2.8809-2.4863-2.8809a0.58064 0.67299 0 0 0-0.41601-0.20505z" color="#000" transform="matrix(.58058 0 0 .67292 -.13764 -1.6755) translate(-181,-747) matrix(1.7224,0,0,1.4861,95.117,318.53)" style="text-decoration-line:none;text-indent:0;text-transform:none"/></g></g></g><g id="arrow-down-small-prelight" transform="translate(60 327)"><rect width="9" height="6" fill="none"/><g fill="#5c616c"><g fill="#5c616c"><path fill="#c7cacf" d="m61.605 291a0.58064 0.67299 0 0 0-0.12891 0.0156 0.58064 0.67299 0 0 0-0.07227 0.0215c-0.02864-0.0109-0.05797-0.0215-0.08984-0.0215-0.16082 0-0.29102 0.1515-0.29102 0.3379 0 0.0245 0.01721 0.0395 0.02148 0.0625a0.58064 0.67299 0 0 0 0.14258 0.75586l2.9023 3.3652 0.41797 0.46289 0.41602-0.46289 2.9023-3.3652a0.59014 0.684 0 0 0 0.13281-0.73047c0.0083-0.0314 0.03125-0.0532 0.03125-0.0879 0-0.1864-0.12824-0.3379-0.28906-0.3379-0.03743 0-0.07267 0.0106-0.10547 0.0254a0.59014 0.684 0 0 0-0.60352 0.16406l-2.4844 2.8809-2.4863-2.8809a0.58064 0.67299 0 0 0-0.41601-0.20505z" color="#000" transform="matrix(.58058 0 0 .67292 -.13764 -1.6755) translate(-181,-747) matrix(1.7224,0,0,1.4861,77.893,318.53)" style="text-decoration-line:none;text-indent:0;text-transform:none"/></g></g></g><g id="arrow-up-small" transform="matrix(1 0 0 -1 40 341)"><rect width="9" height="6" fill="none"/><g fill="#5c616c"><g fill="#9398a2" transform="matrix(.58058 0 0 .67292 -.13764 -1.6755) translate(-181,-747)"><path d="m183.78 751a1.0001 1.0001 0 0 0-0.5 1.7188l5 5 0.71875 0.6875 0.71875-0.6875 5-5a1.0165 1.0165 0 1 0-1.4375-1.4375l-4.2812 4.2812-4.2812-4.2812a1.0001 1.0001 0 0 0-0.9375-0.28125z" color="#000" style="text-decoration-line:none;text-indent:0;text-transform:none"/><rect width="1" height="1" x="-752" y="-195" rx="1.486" ry="1.722" transform="matrix(0,-1,-1,0,0,0)"/><rect width="1" height="1" x="-752" y="-184" rx="1.486" ry="1.722" transform="matrix(0,-1,-1,0,0,0)"/></g></g></g><g id="arrow-up-small-insens" transform="matrix(1 0 0 -1 50 341)"><rect width="9" height="6" fill="none"/><g fill="#5c616c"><g fill="#5c616c"><path fill="#5c616c" d="m54.508 298-0.41797 0.46289-2.9023 3.3652a0.58064 0.67299 0 0 0-0.14258 0.75586c-0.0043 0.023-0.02148 0.038-0.02148 0.0625-1e-6 0.1864 0.13019 0.3379 0.29102 0.3379 0.03187 0 0.0612-0.0106 0.08984-0.0215a0.58064 0.67299 0 0 0 0.07227 0.0215 0.58064 0.67299 0 0 0 0.54492-0.18946l2.4863-2.8809 2.4844 2.8809a0.59014 0.684 0 0 0 0.60352 0.16406c0.0328 0.0148 0.06804 0.0254 0.10547 0.0254 0.16082 0 0.28906-0.1515 0.28906-0.3379 0-0.0347-0.02293-0.0565-0.03125-0.0879a0.59014 0.684 0 0 0-0.13281-0.73047l-2.9023-3.3652z" color="#000" transform="matrix(.58058 0 0 .67292 -.13764 -1.6755) translate(-181,-747) matrix(1.7224,0,0,-1.4861,95.117,1201.3)" style="text-decoration-line:none;text-indent:0;text-transform:none"/></g></g></g><g id="arrow-up-small-prelight" transform="matrix(1 0 0 -1 60 341)"><rect width="9" height="6" fill="none"/><g fill="#5c616c"><g fill="#5c616c"><path fill="#c7cacf" d="m64.508 298-0.41797 0.46289-2.9023 3.3652a0.58064 0.67299 0 0 0-0.14258 0.75586c-0.0043 0.023-0.02148 0.038-0.02148 0.0625-1e-6 0.1864 0.13019 0.3379 0.29102 0.3379 0.03187 0 0.0612-0.0106 0.08984-0.0215a0.58064 0.67299 0 0 0 0.07227 0.0215 0.58064 0.67299 0 0 0 0.54492-0.18946l2.4863-2.8809 2.4844 2.8809a0.59014 0.684 0 0 0 0.60352 0.16406c0.03279 0.0148 0.06804 0.0254 0.10547 0.0254 0.16082 0 0.28906-0.1515 0.28906-0.3379 0-0.0347-0.02293-0.0565-0.03125-0.0879a0.59014 0.684 0 0 0-0.13281-0.73047l-2.9023-3.3652z" color="#000" transform="matrix(.58058 0 0 .67292 -.13764 -1.6755) translate(-181,-747) matrix(1.7224,0,0,-1.4861,77.893,1201.3)" style="text-decoration-line:none;text-indent:0;text-transform:none"/></g></g></g><g id="pathbar_button_active"><g fill="#fafbfc" transform="translate(124.5,448.64) translate(57.5)"><rect width="25" height="15" x="245" y="-152.64" fill="none"/></g><g transform="translate(124.5,448.64) matrix(1 0 0 .13333 57.5 -119.29)"><rect width="25" height="15" x="245" y="-152.64" fill="url(#linearGradient1944)"/></g></g><g id="pathbar_button_prelight" opacity=".5"><g fill="#fafbfc" transform="translate(124.5,473.64) translate(57.5)"><rect width="25" height="15" x="245" y="-152.64" fill="none" opacity="1"/></g><g transform="translate(124.5,473.64) matrix(1 0 0 .13333 57.5 -119.29)"><rect width="25" height="15" x="245" y="-152.64" fill="url(#linearGradient1944)" opacity="1"/></g></g><g id="checkbox-checked"><g><g transform="translate(170,4.64) translate(19) translate(0,-30)"><rect width="16" height="16" x="17" y="30.362" fill="none" color="#000"/><rect width="14" height="14" x="18" y="31.362" fill="url(#linearGradient3889)" color="#000" rx="2" ry="2" style="paint-order:fill markers stroke"/><path fill="#fff" d="m209 6.002c-1.108 0-2 0.892-2 2v0.85742c0-1.0288 0.892-1.8574 2-1.8574h10c1.108 0 2 0.82859 2 1.8574v-0.85742c0-1.108-0.892-2-2-2h-10z" color="#000" opacity=".15" transform="translate(-189,25.36)" style="paint-order:fill markers stroke"/></g></g><g><g><g transform="translate(170,4.64) translate(36,-1036) rotate(45,7.5,1026.4) translate(12.374,11.531)"><g fill="#3b3c3e"><path fill="url(#linearGradient1767)" d="m154.16 15.881c-0.25562 0-0.51116 0.0971-0.70703 0.29297l-3.5352 3.5352-1.4785-1.4766c-0.35638-0.35638-0.95788-0.32923-1.3496 0.0625-0.39174 0.39173-0.42083 0.99519-0.0645 1.3516l2.1856 2.1836 0.0644 0.06445c0.35638 0.35638 0.95788 0.32728 1.3496-0.06445l4.2422-4.2422c0.39174-0.39174 0.39174-1.0223 0-1.4141-0.19587-0.19587-0.45141-0.29297-0.70703-0.29297z" filter="url(#filter1536)" transform="translate(-3,-5) rotate(-45,1304,694.22)"/></g><rect width="3" height="1" x="5" y="-8" fill-opacity="0" transform="translate(0,1036.4)"/></g></g></g></g><g id="radio-checked" transform="translate(132,4.64)"><g><g transform="translate(19.004) matrix(.93617 0 0 .93566 -96.783 -244.76)"><rect width="17.091" height="17.1" x="206.99" y="261.98" fill="none" color="#000"/><g><g stroke-width="0" transform="matrix(.50892 0 0 .5174 181.79 197.56)"><rect width="29.385" height="28.919" x="51.611" y="126.56" fill="url(#linearGradient3893)" color="#000" rx="14.692" ry="14.46"/><path fill="#fff" stroke-width="0" d="m256 5.998c-3.8779 0-7 3.122-7 7 0 0.08784 0.0105 0.17273 0.01368 0.25976 0.13749-3.4868 3.1966-6.2578 6.9863-6.2578s6.8488 2.771 6.9863 6.2578c0.00318-0.087048 0.01367-0.17191 0.01367-0.25976 0-3.878-3.1221-7-7-7z" color="#000" opacity=".15" transform="matrix(2.0989 0 0 2.0656 -471.01 114.17)"/></g></g></g></g><rect width="6" height="6" x="121" y="5.362" fill="url(#linearGradient1943)" stroke-width="1.5" color="#000" filter="url(#filter1488)" rx="2.998" ry="3"/></g><g id="checkbox-unchecked"><g transform="translate(170,4.64) translate(0,-30)"><rect width="16" height="16" x="17" y="30.362" fill="none" color="#000"/><rect width="14" height="14" x="18" y="31.362" fill="url(#linearGradient3913)" color="#000" rx="2.154" ry="2.154"/><rect width="14" height="13" x="18" y="32.362" fill="url(#linearGradient3915)" color="#000" rx="2.154" ry="2"/></g></g><g id="radio-unchecked"><g transform="translate(131,4.64) matrix(.93617 0 0 .93566 -96.783 -244.76)"><rect width="17.091" height="17.1" x="206.99" y="261.98" fill="none" color="#000"/><g transform="matrix(.50892 0 0 .5174 181.79 197.56)"><rect width="29.385" height="28.919" x="51.611" y="126.56" fill="url(#linearGradient3917)" color="#000" rx="14.693" ry="14.274"/><rect width="29.385" height="26.853" x="51.611" y="128.63" fill="url(#linearGradient3919)" color="#000" rx="14.693" ry="13.427"/></g></g></g><g id="checkbox-checked-insensitive"><g opacity=".6"><g transform="translate(71.121 272.53) translate(118,-248.89) translate(0,-30)"><rect width="16" height="16" x="17" y="30.362" fill="none" color="#000"/><rect width="14" height="14" x="17.879" y="31.362" fill="url(#linearGradient3905)" color="#000" rx="2.154" ry="2.154"/><rect width="14" height="13" x="17.879" y="32.362" fill="url(#linearGradient3907)" color="#000" rx="2.154" ry="2"/></g></g><g><g><g transform="translate(71.121 272.53) translate(134.91,-1284.9) rotate(45,7.5,1026.4) translate(12.374,11.531)"><g fill="#3b3c3e"><path fill="#ccc" d="m154.16 34.881c-0.25562 0-0.51116 0.0971-0.70703 0.29297l-3.5352 3.5352-1.4316-1.4297c-0.38234-0.38234-1.0048-0.37611-1.3965 0.01563-0.39174 0.39173-0.39992 1.0161-0.0176 1.3984l2.1387 2.1367 0.0176 0.01758c0.38234 0.38234 1.0048 0.37416 1.3965-0.01758l4.2422-4.2422c0.39174-0.39174 0.39174-1.0223 0-1.4141-0.19587-0.19587-0.45141-0.29297-0.70703-0.29297z" filter="url(#filter1524)" transform="translate(-3,-5) rotate(-45,1281.1,703.72)"/></g><rect width="3" height="1" x="5" y="-8" fill-opacity="0" transform="translate(0,1036.4)"/></g></g></g></g><g id="radio-checked-insensitive" transform="translate(52 272.53)"><g opacity=".6"><g transform="translate(99.004,-248.89) matrix(.93617 0 0 .93566 -96.783 -244.76)"><rect width="17.091" height="17.1" x="206.99" y="261.98" fill="none" color="#000"/><g transform="matrix(.50892 0 0 .5174 181.79 197.56)"><rect width="29.385" height="28.919" x="51.611" y="126.56" fill="url(#linearGradient3917)" color="#000" rx="14.232" ry="14.274"/><rect width="29.385" height="26.853" x="51.611" y="128.63" fill="url(#linearGradient3919)" color="#000" rx="14.693" ry="13.427"/></g></g></g><rect width="6" height="6" x="201" y="-243.53" fill="#ccc" stroke-width="1.5" color="#000" filter="url(#filter1452)" rx="2.998" ry="3"/></g><g id="checkbox-unchecked-insensitive" opacity=".6"><g transform="translate(170,23.64) translate(0,-30)"><rect width="16" height="16" x="17" y="30.362" fill="none" color="#000"/><rect width="14" height="14" x="18" y="31.362" fill="url(#linearGradient3913)" color="#000" rx="2.154" ry="2.154"/><rect width="14" height="13" x="18" y="32.362" fill="url(#linearGradient3915)" color="#000" rx="2.154" ry="2"/></g></g><g id="radio-unchecked-insensitive" opacity=".6"><g transform="translate(131,23.64) matrix(.93617 0 0 .93566 -96.783 -244.76)"><rect width="17.091" height="17.1" x="206.99" y="261.98" fill="none" color="#000"/><g transform="matrix(.50892 0 0 .5174 181.79 197.56)"><rect width="29.385" height="28.919" x="51.611" y="126.56" fill="url(#linearGradient3917)" color="#000" rx="14.232" ry="14.274"/><rect width="29.385" height="26.853" x="51.611" y="128.63" fill="url(#linearGradient3919)" color="#000" rx="14.692" ry="13.255"/></g></g></g><g id="menu-checkbox-checked"><g transform="matrix(3.7795,0,0,3.7795,-271.11,-268.53) matrix(.26458 0 0 .26458 144.46 64.335)"><rect width="14" height="14" x="18" y="31.362" fill="url(#linearGradient3889)" color="#000" rx="2" ry="2" style="paint-order:fill markers stroke"/><path fill="#fff" stroke-width="1" d="m294.88 5.9863c-1.108 0-2 0.89202-2 2v0.85547c0-1.0288 0.89203-1.8555 2-1.8555h9.998c1.108 0 2 0.82666 2 1.8555v-0.85547c0-1.108-0.89202-2-2-2h-9.998z" color="#000" opacity=".15" transform="translate(-274.88 25.376)" style="paint-order:fill markers stroke"/></g><g><g><g transform="matrix(3.7795,0,0,3.7795,-271.11,-268.53) matrix(.26458 0 0 .26458 148.96 -201.84) rotate(45,7.5,1026.4) translate(12.374,11.531)"><g fill="#3b3c3e"><path fill="url(#linearGradient1767)" d="m154.16 15.881c-0.25562 0-0.51116 0.0971-0.70703 0.29297l-3.5352 3.5352-1.4785-1.4766c-0.35638-0.35638-0.95788-0.32923-1.3496 0.0625-0.39174 0.39173-0.42083 0.99519-0.0645 1.3516l2.1856 2.1836 0.0644 0.06445c0.35638 0.35638 0.95788 0.32728 1.3496-0.06445l4.2422-4.2422c0.39174-0.39174 0.39174-1.0223 0-1.4141-0.19587-0.19587-0.45141-0.29297-0.70703-0.29297z" filter="url(#filter1536)" transform="translate(-3,-5) rotate(-45,1304,694.22)"/></g><rect width="3" height="1" x="5" y="-8" fill-opacity="0" transform="translate(0,1036.4)"/></g></g></g></g><g id="menu-radio-checked" transform="matrix(3.7795 0 0 3.7795 -270.99 -268.51)"><g><g><g stroke-width="0" transform="matrix(.2477 0 0 .24756 108.8 7.5133) matrix(.50892 0 0 .5174 181.79 197.56)"><rect width="29.385" height="28.919" x="51.611" y="126.56" fill="url(#linearGradient3893)" color="#000" rx="14.692" ry="14.46"/><path fill="#fff" stroke-width="0" d="m341.88 5.9824c-3.8779 0-7 3.122-7 7 0 0.0876 0.0105 0.17296 0.0137 0.25977 0.1375-3.4868 3.1965-6.2578 6.9863-6.2578h2e-3c3.7898 0 6.8488 2.771 6.9863 6.2578 3e-3 -0.0868 0.0137-0.17216 0.0137-0.25977 0-3.878-3.1221-7-7-7h-2e-3z" color="#000" opacity=".15" transform="matrix(2.0989,0,0,2.0657,-651.26,114.2)"/></g></g></g><rect width="1.587" height="1.587" x="161.39" y="73.69" fill="url(#linearGradient1765)" stroke-width=".397" color="#000" filter="url(#filter1488)" rx=".793" ry=".794"/></g><g id="menu-checkbox-unchecked" transform="translate(255.89,-25.37)"><rect width="14" height="14" x="18" y="31.362" fill="url(#linearGradient3913)" color="#000" rx="2.154" ry="2.154"/><rect width="14" height="13" x="18" y="32.362" fill="url(#linearGradient3915)" color="#000" rx="2.154" ry="2"/></g><g id="menu-radio-unchecked"><g transform="matrix(.93617 0 0 .93566 120.11 -240.13) matrix(.50892 0 0 .5174 181.79 197.56)"><rect width="29.385" height="28.919" x="51.611" y="126.56" fill="url(#linearGradient3917)" color="#000" rx="14.693" ry="14.274"/><rect width="29.385" height="26.853" x="51.611" y="128.63" fill="url(#linearGradient3919)" color="#000" rx="14.693" ry="13.427"/></g></g><g id="menu-checkbox-checked-insensitive"><g opacity=".6" transform="matrix(3.7795,0,0,3.7795,-271.11,-258.85) matrix(.26458 0 0 .26458 144.49 66.804)"><rect width="14" height="14" x="17.879" y="31.362" fill="url(#linearGradient3905)" color="#000" rx="2.154" ry="2.154"/><rect width="14" height="13" x="17.879" y="32.362" fill="url(#linearGradient3907)" color="#000" rx="2.154" ry="2"/></g><g><g><g transform="matrix(3.7795,0,0,3.7795,-271.11,-258.85) matrix(.26458 0 0 .26458 148.97 -199.36) rotate(45,7.5,1026.4) translate(12.374,11.531)"><g fill="#3b3c3e"><path fill="#ccc" d="m154.16 34.881c-0.25562 0-0.51116 0.0971-0.70703 0.29297l-3.5352 3.5352-1.4316-1.4297c-0.38234-0.38234-1.0048-0.37611-1.3965 0.01563-0.39174 0.39173-0.39992 1.0161-0.0176 1.3984l2.1387 2.1367 0.0176 0.01758c0.38234 0.38234 1.0048 0.37416 1.3965-0.01758l4.2422-4.2422c0.39174-0.39174 0.39174-1.0223 0-1.4141-0.19587-0.19587-0.45141-0.29297-0.70703-0.29297z" filter="url(#filter1524)" transform="translate(-3,-5) rotate(-45,1281.1,703.72)"/></g><rect width="3" height="1" x="5" y="-8" fill-opacity="0" transform="translate(0,1036.4)"/></g></g></g></g><g id="menu-radio-checked-insensitive" transform="matrix(3.7795 0 0 3.7795 -270.99 -258.84)"><g opacity=".6"><g transform="matrix(.2477 0 0 .24756 108.8 9.9816) matrix(.50892 0 0 .5174 181.79 197.56)"><rect width="29.385" height="28.919" x="51.611" y="126.56" fill="url(#linearGradient3917)" color="#000" rx="14.232" ry="14.274"/><rect width="29.385" height="26.853" x="51.611" y="128.63" fill="url(#linearGradient1949)" color="#000" rx="14.693" ry="13.427"/></g></g><rect width="1.587" height="1.587" x="161.39" y="76.159" fill="#ccc" stroke-width=".397" color="#000" filter="url(#filter1452)" rx=".793" ry=".794"/></g><g id="menu-checkbox-unchecked-insensitive" opacity=".6" transform="translate(255.89,-6.37)"><rect width="14" height="14" x="18" y="31.362" fill="url(#linearGradient3913)" color="#000" rx="2.154" ry="2.154"/><rect width="14" height="13" x="18" y="32.362" fill="url(#linearGradient3915)" color="#000" rx="2.154" ry="2"/></g><g id="menu-radio-unchecked-insensitive" opacity=".6"><g transform="matrix(.93617 0 0 .93566 120.11 -221.13) matrix(.50892 0 0 .5174 181.79 197.56)"><rect width="29.385" height="28.919" x="51.611" y="126.56" fill="url(#linearGradient3917)" color="#000" rx="14.232" ry="14.274"/><rect width="29.385" height="26.853" x="51.611" y="128.63" fill="url(#linearGradient3919)" color="#000" rx="14.692" ry="13.255"/></g></g><circle id="slider-insensitive" cx="275" cy="263.5" r="7" fill="#aaa" stroke="#000" stroke-opacity=".118" stroke-width="2" style="paint-order:stroke fill markers"/><g id="button-active-hover" transform="translate(41,283.64)"><rect width="22" height="22" x="101" y="-278.64" fill="url(#linearGradient2007)" rx="4" ry="4"/><rect width="23" height="23" x="100.5" y="256.14" fill="none" stroke="#000" stroke-opacity=".118" rx="4.5" ry="4.5" transform="scale(1,-1)"/><rect width="26" height="24" x="99" y="-279.64" fill="none" opacity=".133"/><path fill="#fff" d="m112 5c-2.216 0-4 1.784-4 4v0.81836c0-2.1153 1.784-3.8184 4-3.8184h14c2.216 0 4 1.7031 4 3.8184v-0.81836c0-2.216-1.784-4-4-4z" opacity=".1" transform="translate(-7,-283.64)"/><rect width="22" height="22" x="101" y="-278.64" fill="#fff" opacity=".15" rx="4" ry="4"/></g><g id="toolbar-button-active" transform="translate(109,316.64)"><rect width="22" height="22" x="-1" y="-278.64" fill="#656565" rx="4" ry="4"/><rect width="23" height="23" x="-1.5" y="-279.14" fill="none" stroke="#000" stroke-opacity=".118" rx="4.5" ry="4.5"/><rect width="26" height="24" x="-3" y="-279.64" fill="none" opacity=".133"/><path fill="#fff" d="m112 38c-2.216 0-4 1.784-4 4v0.81836c0-2.1153 1.784-3.8184 4-3.8184h14c2.216 0 4 1.7031 4 3.8184v-0.81836c0-2.216-1.784-4-4-4z" opacity=".1" transform="translate(-109,-316.64)"/></g><g id="toolbar-button-active-hover" transform="translate(109,316.64)"><rect width="22" height="22" x="33" y="-278.64" fill="#707070" rx="4" ry="4"/><rect width="23" height="23" x="32.5" y="-279.14" fill="none" stroke="#000" stroke-opacity=".118" rx="4.5" ry="4.5"/><rect width="26" height="24" x="31" y="-279.64" fill="none" opacity=".133"/><path fill="#fff" d="m146 38c-2.216 0-4 1.784-4 4v0.81836c0-2.1153 1.784-3.8184 4-3.8184h14c2.216 0 4 1.7031 4 3.8184v-0.81836c0-2.216-1.784-4-4-4z" opacity=".1" transform="translate(-109,-316.64)"/></g><g id="entry-active-bg" transform="translate(6,345.64)"><rect width="26" height="24" x="31" y="-279.64" fill="#333"/><rect width="24" height="22" x="32" y="-278.64" fill="#242424" stroke="#fefefe" stroke-opacity=".059" rx="2.5" ry="2.5"/><rect width="24.077" height="22.077" x="31.961" y="-278.68" fill="none" stroke="url(#linearGradient5017)" stroke-width="1.923" rx="4.334" ry="4.319"/></g><g id="entry-active-notebook" transform="translate(6,377.64)"><rect width="26" height="24" x="31" y="-279.64" fill="#242424" rx="0" ry="0"/><rect width="24" height="22" x="32" y="-278.64" fill="#242424" rx="4" ry="4"/><rect width="24.077" height="22.077" x="31.961" y="-278.68" fill="none" stroke="url(#linearGradient5017)" stroke-width="1.923" rx="4.334" ry="4.319"/></g><g id="combo-entry-focus" clip-path="url(#clipPath4470-70)" transform="translate(-3,452.64)"><rect width="26" height="24" x="31" y="-279.64" fill="#333" rx="0" ry="0"/><rect width="23" height="22" x="32" y="-278.64" fill="#242424" rx="3" ry="3"/><rect width="24" height="23" x="32" y="-279.14" fill="none" stroke="url(#linearGradient5025)" stroke-width="2" rx="4.5" ry="4.5"/><rect width="2" height="22" x="50" y="-278.64" fill="url(#linearGradient5121)"/></g><g id="combo-entry-focus-notebook" clip-path="url(#clipPath4470-7-1)" transform="translate(-3,482.64)"><rect width="23" height="22" x="32" y="-278.64" fill="#242424" rx="3" ry="3"/><rect width="24" height="23" x="32" y="-279.14" fill="none" stroke="url(#linearGradient5025)" stroke-width="2" rx="4.5" ry="4.5"/><rect width="2" height="22" x="50" y="-278.64" fill="url(#linearGradient5121-2)"/></g><g id="combo-entry-focus-rtl" clip-path="url(#clipPath4470-6-5)" transform="matrix(-1,0,0,1,162,452.64)"><rect width="26" height="24" x="-57" y="-279.64" fill="#333" rx="0" ry="0" transform="scale(-1,1)"/><rect width="23" height="22" x="-55" y="-278.64" fill="#242424" rx="3" ry="3" transform="scale(-1,1)"/><rect width="24" height="23" x="32" y="-279.14" fill="none" stroke="url(#linearGradient5025)" stroke-width="2" rx="4.5" ry="4.5"/><rect width="2" height="22" x="-52" y="-278.64" fill="url(#linearGradient5121-9)" transform="scale(-1,1)"/></g><g id="combo-entry-focus-notebook-rtl" clip-path="url(#clipPath4470-7-0-2)" transform="matrix(-1,0,0,1,162,482.64)"><rect width="23" height="22" x="-55" y="-278.64" fill="#242424" rx="3" ry="3" transform="scale(-1,1)"/><rect width="24" height="23" x="32" y="-279.14" fill="none" stroke="url(#linearGradient5025)" stroke-width="2" rx="4.5" ry="4.5"/><rect width="2" height="22" x="-52" y="-278.64" fill="url(#linearGradient5121-0)" transform="scale(-1,1)"/></g><g id="entry-active-toolbar" transform="translate(6,409.64)"><rect width="26" height="24" x="31" y="-279.64" fill="#333" rx="0" ry="0"/><rect width="24" height="22" x="32" y="-278.64" fill="#242424" rx="4" ry="4"/><rect width="24.077" height="22.077" x="31.961" y="-278.68" fill="none" stroke="url(#linearGradient5017)" stroke-linecap="round" stroke-linejoin="round" stroke-width="1.923" rx="4.334" ry="4.319" style="paint-order:markers stroke fill"/></g><g id="entry-border-active-bg" transform="translate(6,315.64)"><path fill="#333" d="m30-280.64v26h28v-26h-27zm2 2h24v22h-24z"/><path fill="#333" d="m144 66v24h26v-24zm3.5 1h19c1.385 0 2.5 1.115 2.5 2.5v17c0 1.385-1.115 2.5-2.5 2.5h-19c-1.385 0-2.5-1.115-2.5-2.5v-17c0-1.385 1.115-2.5 2.5-2.5z" transform="translate(-113,-345.64)"/><rect width="25" height="23" x="31.5" y="-279.14" fill="none" stroke="url(#linearGradient1759)" stroke-width="2" rx="4.5" ry="4.5"/></g><g id="combo-entry-border-focus" clip-path="url(#clipPath4466-3-1-5)" transform="translate(193,452.64)"><path fill="#333" d="m-43 149v24h26v-24zm3 1h18c1.108 0 2 0.892 2 2v18c0 1.108-0.892 2-2 2h-18c-1.108 0-2-0.892-2-2v-18c0-1.108 0.892-2 2-2z" transform="translate(40,-428.64)"/><rect width="24" height="23" x="-2" y="-279.14" fill="none" stroke="url(#linearGradient5171)" stroke-width="2" rx="4.5" ry="4.5"/><rect width="2" height="22" x="16" y="-278.64" fill="url(#linearGradient6618-1)"/></g><g id="combo-entry-border-focus-rtl" clip-path="url(#clipPath4466-3-1-0-6)" transform="matrix(-1,0,0,1,208,482.64)"><path fill="#333" d="m-43 149v24h26v-24zm3 1h18c1.108 0 2 0.892 2 2v18c0 1.108-0.892 2-2 2h-18l-2-2v-18z" transform="translate(40,-428.64)"/><rect width="24" height="23" x="-1.5" y="-279.14" fill="none" stroke="url(#linearGradient5171-1)" stroke-width="2" rx="4.5" ry="4.5"/><rect width="2" height="22" x="16" y="-278.64" fill="url(#linearGradient6618-1)"/></g></svg>