<svg xmlns="http://www.w3.org/2000/svg" width="16" height="16" version="1.1"><g fill-rule="evenodd"><path stroke-width="3.36" d="m7.9965 15.998c4.4182 0 7.9997-3.5817 7.9997-7.9999 0-4.4184-3.5816-7.9999-7.9997-7.9999-4.4182 0-8.0001 3.5818-8.0001 7.9999 0 4.4184 3.5816 7.9999 8.0001 7.9999" opacity=".25"/><path fill="#59c837" stroke-width="2.94" d="M 8.0002,15 C 11.8662,15 15,11.866 15,8 15,4.1339 11.8661,1 8.0002,1 4.1342,1 1,4.1341 1,8 c 0,3.8661 3.1339,7 7.0002,7"/><path stroke-width="2.94" d="m8.0002 15c3.866 0 6.9998-3.134 6.9998-7 0-3.8661-3.1339-7-6.9998-7-3.866 0-7.0002 3.1341-7.0002 7 0 3.8661 3.1339 7 7.0002 7" opacity=".2"/></g><path stroke-width="3.78" d="m8.0254 3.4141v3.5859c0 0.41552 0.58448 1 1 1h3.5859zm-4.6367 4.5859 4.5859 4.5859v-3.5859c0-0.41552-0.58448-1-1-1z" opacity=".5"/></svg>