<svg xmlns="http://www.w3.org/2000/svg" width="150" height="150" version="1.1" viewBox="0 0 39.687 39.688"><defs><clipPath id="clipPath1084"><rect width="26.458" height="8.467" x="6.35" y="262.34" fill="#fff" opacity=".15" rx=".087" ry=".078" style="paint-order:stroke fill markers"/></clipPath><linearGradient id="linearGradient1094" x1="19.844" x2="19.844" y1="270.81" y2="263.4" gradientUnits="userSpaceOnUse"><stop offset="0" stop-color="#e2e2e2"/><stop offset="1" stop-color="#f5f5f5"/></linearGradient><filter id="filter1152" width="1.124" height="1.425" x="-.062" y="-.213" color-interpolation-filters="sRGB"><feGaussianBlur stdDeviation=".656"/></filter><clipPath id="clipPath1164"><rect width="25.644" height="7.397" x="7.132" y="262.47" fill="#fff" opacity=".15" rx=".084" ry=".068" style="paint-order:stroke fill markers"/></clipPath><linearGradient id="linearGradient1244" x1="19.844" x2="19.844" y1="270.81" y2="263.4" gradientUnits="userSpaceOnUse"><stop offset="0" stop-color="#3e3e3e"/><stop offset="1" stop-color="#434343"/></linearGradient></defs><g id="thumbnail-light" transform="translate(0,-257.31)"><path fill="#000" d="m6.35 263.4 23.812-1e-5c0.87948 0 1.5875 0.70803 1.5875 1.5875v4.2333l1e-6 1.5875h-25.4l-6e-7 -1.5875v-4.2333z" clip-path="url(#clipPath1164)" filter="url(#filter1152)" opacity=".5" transform="matrix(1.0318,0,0,1.1446,-1.0081,-38.08)" style="paint-order:stroke fill markers"/><path fill="#fff" stroke="#000" stroke-linecap="round" stroke-width=".529" d="m6.35 263.4 23.812-1e-5c0.87948 0 1.5875 0.70803 1.5875 1.5875v4.2333l1e-6 1.5875h-25.4l-6e-7 -1.5875v-4.2333z" clip-path="url(#clipPath1084)" opacity=".15" style="paint-order:stroke fill markers"/><path fill="url(#linearGradient1094)" d="m6.35 263.4 23.812-1e-5c0.87948 0 1.5875 0.70803 1.5875 1.5875v4.2333l1e-6 1.5875h-25.4l-6e-7 -1.5875v-4.2333z" style="paint-order:stroke fill markers"/><g id="titlebutton-close-hover" transform="matrix(.26458 0 0 .26458 -52.123 322.3)"><rect width="16" height="16" x="293" y="-216.64" stroke-width=".474" opacity="0" ry="0" style="paint-order:markers stroke fill"/><g><g><path fill="#cb4e43" fill-rule="evenodd" d="m12 1047.4c3.8659 0 6.9999-3.134 6.9999-7s-3.134-7-6.9999-7c-3.866 0-7.0001 3.134-7.0001 7s3.134 7 7.0001 7" transform="translate(294,-215.64) translate(-5,-1033.4)"/><path fill="#fe6254" fill-rule="evenodd" d="m12 1046.9c3.5898 0 6.4999-2.9103 6.4999-6.5001 0-3.5899-2.9102-6.5-6.4999-6.5-3.5899 0-6.5001 2.9101-6.5001 6.5 0 3.5898 2.9102 6.5001 6.5001 6.5001" transform="translate(294,-215.64) translate(-5,-1033.4)"/><path fill="#000" d="m9.1716 1037.5c-0.39174 0.3917-0.39174 1.0224 0 1.4142l1.4142 1.4142-1.4142 1.4142c-0.39174 0.3918-0.39174 1.0225 0 1.4142 0.39174 0.3918 1.0225 0.3918 1.4142 0l1.4142-1.4142 1.4142 1.4142c0.39174 0.3918 1.0225 0.3918 1.4142 0 0.39174-0.3917 0.39174-1.0224 0-1.4142l-1.4142-1.4142 1.4142-1.4142c0.39174-0.3918 0.39174-1.0225 0-1.4142-0.39174-0.3918-1.0225-0.3918-1.4142 0l-1.4142 1.4142-1.4142-1.4142c-0.39174-0.3918-1.0225-0.3918-1.4142 0z" enable-background="new" opacity=".5" transform="translate(294,-215.64) translate(-5,-1033.4)"/></g></g></g><g id="titlebutton-maximize-hover" transform="matrix(.26458 0 0 .26458 -52.656 322.3)"><rect width="16" height="16" x="273" y="-216.64" stroke-width=".474" opacity="0" ry="0" style="paint-order:markers stroke fill"/><g><g><path fill="#20a932" fill-rule="evenodd" d="m12 1047.4c3.8659 0 6.9999-3.134 6.9999-7s-3.134-7-6.9999-7c-3.866 0-7.0001 3.134-7.0001 7s3.134 7 7.0001 7" transform="translate(274,-215.64) translate(-5,-1033.4)"/><path fill="#28d33f" fill-rule="evenodd" d="m12 1046.9c3.5898 0 6.4999-2.9103 6.4999-6.5001 0-3.5899-2.9102-6.5-6.4999-6.5-3.5899 0-6.5001 2.9101-6.5001 6.5 0 3.5898 2.9102 6.5001 6.5001 6.5001" transform="translate(274,-215.64) translate(-5,-1033.4)"/><path fill="#000" d="m10.414 1037.4 4.5859 4.5859v-3.5859c0-0.4155-0.5845-1-1-1zm-1.4141 1.4141v3.5859c0 0.4155 0.5845 1 1 1h3.5859z" opacity=".5" transform="translate(274,-215.64) translate(-5,-1033.4)"/></g></g></g><g id="titlebutton-minimize-hover" transform="matrix(.26458 0 0 .26458 -53.185 322.3)"><rect width="16" height="16" x="253" y="-216.64" stroke-width=".474" opacity="0" ry="0" style="paint-order:markers stroke fill"/><g><g transform="translate(254,-215.64) translate(-5,-1033.4)"><path fill="#caa124" fill-rule="evenodd" d="m12 1047.4c3.8659 0 6.9999-3.134 6.9999-7s-3.134-7-6.9999-7c-3.866 0-7.0001 3.134-7.0001 7s3.134 7 7.0001 7"/><path fill="#fdc92d" fill-rule="evenodd" d="m12 1046.9c3.5898 0 6.4999-2.9103 6.4999-6.5001 0-3.5899-2.9102-6.5-6.4999-6.5-3.5899 0-6.5001 2.9101-6.5001 6.5 0 3.5898 2.9102 6.5001 6.5001 6.5001"/><rect width="8" height="2" x="8" y="1039.4" fill="#000" opacity=".5" ry="1"/></g></g></g></g><g id="thumbnail-dark"><path fill="#000" d="m6.35 263.4 23.812-1e-5c0.87948 0 1.5875 0.70803 1.5875 1.5875v4.2333l1e-6 1.5875h-25.4l-6e-7 -1.5875v-4.2333z" clip-path="url(#clipPath1164)" filter="url(#filter1152)" opacity=".5" transform="translate(0,-241.7) matrix(1.0318,0,0,1.1446,-1.0081,-38.08)" style="paint-order:stroke fill markers"/><path fill="#424242" stroke="#000" stroke-linecap="round" stroke-width=".529" d="m6.35 263.4 23.812-1e-5c0.87948 0 1.5875 0.70803 1.5875 1.5875v4.2333l1e-6 1.5875h-25.4l-6e-7 -1.5875v-4.2333z" clip-path="url(#clipPath1084)" opacity=".8" transform="translate(0,-241.7)" style="paint-order:stroke fill markers"/><path fill="url(#linearGradient1244)" d="m6.35 263.4 23.812-1e-5c0.87948 0 1.5875 0.70803 1.5875 1.5875v4.2333l1e-6 1.5875h-25.4l-6e-7 -1.5875v-4.2333z" transform="translate(0,-241.7)" style="paint-order:stroke fill markers"/><g transform="translate(0,-241.7) matrix(.26458 0 0 .26458 -52.123 322.3)"><rect width="16" height="16" x="293" y="-216.64" stroke-width=".474" opacity="0" ry="0" style="paint-order:markers stroke fill"/><g><g><path fill="#fe6254" fill-rule="evenodd" d="m12 1047.4c3.8659 0 6.9999-3.134 6.9999-7s-3.134-7-6.9999-7c-3.866 0-7.0001 3.134-7.0001 7s3.134 7 7.0001 7" transform="translate(294,-215.64) translate(-5,-1033.4)"/><path fill="#fe6254" fill-rule="evenodd" d="m12 1046.9c3.5898 0 6.4999-2.9103 6.4999-6.5001 0-3.5899-2.9102-6.5-6.4999-6.5-3.5899 0-6.5001 2.9101-6.5001 6.5 0 3.5898 2.9102 6.5001 6.5001 6.5001" transform="translate(294,-215.64) translate(-5,-1033.4)"/><path fill="#000" d="m9.1716 1037.5c-0.39174 0.3917-0.39174 1.0224 0 1.4142l1.4142 1.4142-1.4142 1.4142c-0.39174 0.3918-0.39174 1.0225 0 1.4142 0.39174 0.3918 1.0225 0.3918 1.4142 0l1.4142-1.4142 1.4142 1.4142c0.39174 0.3918 1.0225 0.3918 1.4142 0 0.39174-0.3917 0.39174-1.0224 0-1.4142l-1.4142-1.4142 1.4142-1.4142c0.39174-0.3918 0.39174-1.0225 0-1.4142-0.39174-0.3918-1.0225-0.3918-1.4142 0l-1.4142 1.4142-1.4142-1.4142c-0.39174-0.3918-1.0225-0.3918-1.4142 0z" enable-background="new" opacity=".5" transform="translate(294,-215.64) translate(-5,-1033.4)"/></g></g></g><g transform="translate(0,-241.7) matrix(.26458 0 0 .26458 -52.656 322.3)"><rect width="16" height="16" x="273" y="-216.64" stroke-width=".474" opacity="0" ry="0" style="paint-order:markers stroke fill"/><g><g><path fill="#28d33f" fill-rule="evenodd" d="m12 1047.4c3.8659 0 6.9999-3.134 6.9999-7s-3.134-7-6.9999-7c-3.866 0-7.0001 3.134-7.0001 7s3.134 7 7.0001 7" transform="translate(274,-215.64) translate(-5,-1033.4)"/><path fill="#28d33f" fill-rule="evenodd" d="m12 1046.9c3.5898 0 6.4999-2.9103 6.4999-6.5001 0-3.5899-2.9102-6.5-6.4999-6.5-3.5899 0-6.5001 2.9101-6.5001 6.5 0 3.5898 2.9102 6.5001 6.5001 6.5001" transform="translate(274,-215.64) translate(-5,-1033.4)"/><path fill="#000" d="m10.414 1037.4 4.5859 4.5859v-3.5859c0-0.4155-0.5845-1-1-1zm-1.4141 1.4141v3.5859c0 0.4155 0.5845 1 1 1h3.5859z" opacity=".5" transform="translate(274,-215.64) translate(-5,-1033.4)"/></g></g></g><g transform="translate(0,-241.7) matrix(.26458 0 0 .26458 -53.185 322.3)"><rect width="16" height="16" x="253" y="-216.64" stroke-width=".474" opacity="0" ry="0" style="paint-order:markers stroke fill"/><g><g transform="translate(254,-215.64) translate(-5,-1033.4)"><path fill="#fdc92d" fill-rule="evenodd" d="m12 1047.4c3.8659 0 6.9999-3.134 6.9999-7s-3.134-7-6.9999-7c-3.866 0-7.0001 3.134-7.0001 7s3.134 7 7.0001 7"/><path fill="#fdc92d" fill-rule="evenodd" d="m12 1046.9c3.5898 0 6.4999-2.9103 6.4999-6.5001 0-3.5899-2.9102-6.5-6.4999-6.5-3.5899 0-6.5001 2.9101-6.5001 6.5 0 3.5898 2.9102 6.5001 6.5001 6.5001"/><rect width="8" height="2" x="8" y="1039.4" fill="#000" opacity=".5" ry="1"/></g></g></g><path fill="#fff" d="m24 82v1h90c3.6111 0 6 2.2642 6 5.7852v-0.78516c0-3.324-2.676-6-6-6h-90z" opacity=".1" transform="translate(0,-241.7) matrix(.26458 0 0 .26458 0 241.7)" style="paint-order:stroke fill markers"/></g></svg>