<svg xmlns="http://www.w3.org/2000/svg" xmlns:xlink="http://www.w3.org/1999/xlink" width="40" height="24" version="1.1" viewBox="0 0 40 24"><defs><filter id="filter1034" width="1.075" height="1.075" x="-.038" y="-.038" color-interpolation-filters="sRGB"><feGaussianBlur stdDeviation=".36"/></filter><filter id="filter1038" width="1.043" height="1.141" x="-.022" y="-.07" color-interpolation-filters="sRGB"><feGaussianBlur stdDeviation=".36"/></filter><linearGradient id="linearGradient862" x1="19" x2="19" y1="24" gradientUnits="userSpaceOnUse"><stop offset="0" stop-color="#fff"/><stop offset="1" stop-color="#fff" stop-opacity="0"/></linearGradient></defs><rect width="40" height="24" fill="#0860f2" stroke-linecap="round" stroke-linejoin="round" stroke-width=".495" rx="12" ry="12" style="paint-order:markers stroke fill"/><rect width="40" height="24" fill="url(#linearGradient862)" stroke-linecap="round" stroke-linejoin="round" stroke-width=".495" opacity=".3" rx="12" ry="12" style="paint-order:markers stroke fill"/><rect width="40" height="24" y="-.038" stroke-width=".877" opacity="0"/><circle cx="28" cy="12.5" r="11.5" fill="#000" stroke-width="1.278" filter="url(#filter1034)" opacity=".1"/><circle cx="28" cy="12" r="11" fill="#fff" stroke-width="1.222"/><path fill="#000" stroke-linecap="round" stroke-linejoin="round" stroke-width=".495" d="m12 0c-6.648 0-12 5.352-12 12 0 0.086409 0.011872 0.1699 0.013672 0.25586 0.13601-6.2562 5.4243-11.256 11.986-11.256h16c6.562 0 11.85 4.9996 11.986 11.256 0.0018-0.085962 0.013672-0.16945 0.013672-0.25586 0-6.648-5.352-12-12-12h-16z" filter="url(#filter1038)" opacity=".1" style="paint-order:markers stroke fill"/></svg>