<svg xmlns="http://www.w3.org/2000/svg" xmlns:osb="http://www.openswatchbook.org/uri/2009/osb" xmlns:xlink="http://www.w3.org/1999/xlink" width="240" height="270" version="1.1"><defs id="theme_colors"><linearGradient id="dark_shade" osb:paint="gradient"><stop offset="0" stop-color="#000" stop-opacity=".25"/><stop offset="1" stop-color="#000" stop-opacity=".1"/></linearGradient><linearGradient id="theme_darker_color" osb:paint="solid"><stop offset="0" stop-color="#4d4d4d"/></linearGradient><linearGradient id="unchecked_highlight" osb:paint="solid"><stop offset="0" stop-color="#5f5f5f"/></linearGradient><linearGradient id="dark_unchecked_bg" osb:paint="gradient"><stop offset="0" stop-color="#6a6a6a"/><stop offset="1" stop-color="#545454"/></linearGradient><linearGradient id="selected_fg_color" osb:paint="solid"><stop offset="0" stop-color="#fff"/></linearGradient><linearGradient id="selected_bg_color" osb:paint="solid"><stop offset="0" stop-color="#0860f2"/></linearGradient><linearGradient id="p" x1="66.312" x2="66.312" y1="126.56" y2="155.48" gradientUnits="userSpaceOnUse" xlink:href="#selected_fg_color"/><linearGradient id="r" x1="25" x2="25" y1="31.362" y2="45.362" gradientUnits="userSpaceOnUse" xlink:href="#selected_fg_color"/><linearGradient id="d" x1="66.303" x2="66.303" y1="126.56" y2="155.48" gradientUnits="userSpaceOnUse" xlink:href="#selected_fg_color"/><linearGradient id="v" x1="-8.362" x2="-8.362" y1="139" y2="147" gradientUnits="userSpaceOnUse" xlink:href="#selected_fg_color"/><linearGradient id="u" x1="124" x2="124" y1="6.362" y2="10.362" gradientTransform="matrix(1.5001 0 0 1.5001 -62.011 -4.1838)" gradientUnits="userSpaceOnUse" xlink:href="#selected_fg_color"/><linearGradient id="t" x1="-737.8" x2="-737.8" y1="-725.95" y2="-717.95" gradientTransform="translate(0 -.031392)" gradientUnits="userSpaceOnUse" xlink:href="#selected_fg_color"/><linearGradient id="s" x1="10.5" x2="10.5" y1="1033.4" y2="1035.4" gradientTransform="rotate(45,1243.6,548.31)" gradientUnits="userSpaceOnUse" xlink:href="#selected_fg_color"/><linearGradient id="w" x1="484.2" x2="484.2" y1="188.95" y2="204.89" gradientUnits="userSpaceOnUse" xlink:href="#selected_fg_color"/><linearGradient id="be" x1="24" x2="24" y1="45.362" y2="32.253" gradientTransform="matrix(1 0 0 .99168 0 .3776)" gradientUnits="userSpaceOnUse" xlink:href="#dark_shade"/><linearGradient id="ax" x1="51.611" x2="80.996" y1="141.02" y2="141.02" gradientUnits="userSpaceOnUse" xlink:href="#selected_bg_color"/><linearGradient id="bh" x1="25" x2="25" y1="45.36" y2="31.36" gradientTransform="matrix(1 0 0 .92857 0 3.2401)" gradientUnits="userSpaceOnUse" xlink:href="#dark_shade"/><linearGradient id="bg" x1="66.31" x2="66.31" y1="155.48" y2="126.56" gradientTransform="matrix(1 0 0 .92857 0 11.106)" gradientUnits="userSpaceOnUse" xlink:href="#dark_shade"/><linearGradient id="bd" x1="479.12" x2="479.12" y1="215.25" y2="183.36" gradientTransform="matrix(.93751 0 0 .90625 30.122 19.19)" gradientUnits="userSpaceOnUse" xlink:href="#dark_shade"/><linearGradient id="ba" x1="24" x2="24" y1="45.362" y2="31.362" gradientTransform="matrix(1 0 0 .92857 0 3.2402)" gradientUnits="userSpaceOnUse" xlink:href="#dark_unchecked_bg"/><linearGradient id="aw" x1="18" x2="32" y1="38.362" y2="38.362" gradientUnits="userSpaceOnUse" xlink:href="#unchecked_highlight"/><linearGradient id="au" x1="17.879" x2="31.879" y1="38.362" y2="38.362" gradientUnits="userSpaceOnUse" xlink:href="#unchecked_highlight"/><linearGradient id="ar" x1="51.611" x2="80.996" y1="141.02" y2="141.02" gradientUnits="userSpaceOnUse" xlink:href="#unchecked_highlight"/><linearGradient id="ao" x1="66.303" x2="66.303" y1="155.48" y2="126.56" gradientTransform="matrix(1 0 0 .92857 0 11.106)" gradientUnits="userSpaceOnUse" xlink:href="#dark_unchecked_bg"/><linearGradient id="an" x1="24.879" x2="24.879" y1="45.362" y2="31.362" gradientTransform="matrix(1 0 0 .92857 0 3.2402)" gradientUnits="userSpaceOnUse" xlink:href="#dark_unchecked_bg"/><linearGradient id="aj" x1="481.12" x2="481.12" y1="214.25" y2="184.25" gradientUnits="userSpaceOnUse" xlink:href="#dark_unchecked_bg"/><linearGradient id="j" x1="18" x2="32" y1="38.362" y2="38.362" gradientUnits="userSpaceOnUse" xlink:href="#selected_bg_color"/><linearGradient id="ag" x1="466" x2="498" y1="199.36" y2="199.36" gradientUnits="userSpaceOnUse" xlink:href="#selected_bg_color"/><linearGradient id="af" x1="-8" x2="113" y1="-150.06" y2="-150.06" gradientTransform="matrix(1,0,0,1.0052,2.2411e-5,1.1923)" gradientUnits="userSpaceOnUse" xlink:href="#selected_bg_color"/><linearGradient id="bb" x1="466" x2="498" y1="199.36" y2="199.36" gradientUnits="userSpaceOnUse" xlink:href="#selected_fg_color"/><linearGradient id="i" x1="-9.362" x2="-7.362" y1="143" y2="143" gradientUnits="userSpaceOnUse" xlink:href="#theme_darker_color"/><linearGradient id="h" x1="122" x2="126" y1="8.362" y2="8.362" gradientTransform="matrix(1.5 0 0 1.5 -62 -4.1833)" gradientUnits="userSpaceOnUse" xlink:href="#theme_darker_color"/><linearGradient id="g" x1="-738.8" x2="-736.8" y1="-721.95" y2="-721.95" gradientUnits="userSpaceOnUse" xlink:href="#theme_darker_color"/><linearGradient id="f" x1="8" x2="13" y1="1034.4" y2="1034.4" gradientUnits="userSpaceOnUse" xlink:href="#theme_darker_color"/><linearGradient id="e" x1="11" x2="13" y1="1031.4" y2="1031.4" gradientUnits="userSpaceOnUse" xlink:href="#theme_darker_color"/><linearGradient id="linearGradient1903" x1="210" x2="238" y1="71" y2="71" gradientUnits="userSpaceOnUse" xlink:href="#selected_bg_color"/><linearGradient id="linearGradient2482" x1="466.89" x2="497.11" y1="199.36" y2="199.36" gradientTransform="matrix(.99279 0 0 .99279 3.4782 1.4392)" gradientUnits="userSpaceOnUse" xlink:href="#selected_bg_color"/><filter id="filter1747" width="1.189" height="1.252" x="-.094" y="-.126" color-interpolation-filters="sRGB"><feGaussianBlur stdDeviation=".33"/></filter><filter id="filter1765" width="1.135" height="1.54" x="-.068" y="-.27" color-interpolation-filters="sRGB"><feGaussianBlur stdDeviation=".225"/></filter><filter id="filter1868" width="1.135" height="1.54" x="-.068" y="-.27" color-interpolation-filters="sRGB"><feGaussianBlur stdDeviation=".225"/></filter><filter id="filter1754" width="1.216" height="1.216" x="-.108" y="-.108" color-interpolation-filters="sRGB"><feGaussianBlur stdDeviation=".27"/></filter></defs><rect width="125.44" height="268" x="248" y="0" fill="#fff" fill-rule="evenodd" stroke-width=".998" rx="0" ry="0" style="paint-order:fill markers stroke"/><g transform="translate(8,279.64)"><rect width="121" height="165" x="113" y="10.638" fill="#f9fafb" color="#000" rx="0" ry="0" transform="scale(1,-1)"/><rect width="121" height="103" x="113" y="175.64" fill="#333" color="#000" rx="0" ry="0" transform="scale(1,-1)"/><rect width="121" height="113" x="-8" y="10.638" fill="#999" color="#000" rx="0" ry="0" transform="scale(1,-1)"/><rect width="121" height="103" x="-8" y="175.64" fill="#f9fafb" color="#000" rx="0" ry="0" transform="scale(1,-1)"/><rect width="121" height="52" x="-8" y="-175.64" fill="url(#af)" color="#000" rx="0" ry="0"/></g><rect width="28" height="28" x="210" y="57" fill="url(#linearGradient1903)" stroke="#000" stroke-width="2" opacity=".15" rx="0" ry="6" style="paint-order:stroke fill markers"/><g id="checkbox-checked-dark"><g><g transform="translate(107,11.64) translate(19) translate(0,-30)"><rect width="16" height="16" x="17" y="30.362" fill="none" color="#000"/><rect width="16" height="16" x="17" y="30.362" color="#000" opacity=".12" rx="4" ry="4" style="paint-order:fill markers stroke"/><rect width="14" height="14" x="18" y="31.362" fill="url(#j)" color="#000" rx="3" ry="3" style="paint-order:fill markers stroke"/><rect width="14" height="14" x="18" y="31.362" fill="#fff" color="#000" opacity=".15" rx="3" ry="3" style="paint-order:fill markers stroke"/><rect width="14" height="13" x="18" y="32.362" fill="url(#be)" color="#000" rx="3" ry="3" style="paint-order:fill markers stroke"/></g></g><g><g><g transform="translate(107,11.64) translate(36,-1036) rotate(45,7.5,1026.4) translate(12.374,11.531)"><g fill="#3b3c3e"><path fill="#fff" d="m154.16 15.881c-0.25562 0-0.51116 0.0971-0.70703 0.29297l-3.5352 3.5352-1.4785-1.4766c-0.35638-0.35638-0.95788-0.32923-1.3496 0.0625-0.39174 0.39173-0.42083 0.99519-0.0645 1.3516l2.1856 2.1836 0.0644 0.06445c0.35638 0.35638 0.95788 0.32728 1.3496-0.06445l4.2422-4.2422c0.39174-0.39174 0.39174-1.0223 0-1.4141-0.19587-0.19587-0.45141-0.29297-0.70703-0.29297z" filter="url(#bn)" transform="translate(-3,-5) rotate(-45,1304,694.22)"/></g><rect width="3" height="1" x="5" y="-8" fill-opacity="0" transform="translate(0,1036.4)"/></g></g></g></g><g id="checkbox-mixed-dark"><g><g transform="translate(126,11.64) translate(19) translate(0,-30)"><rect width="16" height="16" x="17" y="30.362" fill="none" color="#000"/><rect width="16" height="16" x="17" y="30.362" color="#000" opacity=".12" rx="4" ry="4"/><rect width="14" height="14" x="18" y="31.362" fill="url(#j)" stroke-width="0" color="#000" rx="3" ry="3"/><rect width="14" height="14" x="18" y="31.362" fill="#fff" stroke-width="0" color="#000" opacity=".15" rx="3" ry="3"/><rect width="14" height="13" x="18" y="32.362" fill="url(#bh)" stroke-width="0" color="#000" rx="3" ry="3"/></g></g><g><g><g transform="translate(126,11.64) translate(36,-1036) rotate(45,7.5,1026.4) translate(12.374,11.531)"><g transform="translate(-3,-5)"><rect width="2" height="8" x="-738.8" y="-725.95" fill="#fff" ry="1" transform="rotate(225)"/></g><rect width="3" height="1" x="5" y="-8" fill-opacity="0" transform="translate(0,1036.4)"/></g></g></g></g><g id="radio-checked-dark" transform="translate(88,11.64)"><g><g transform="translate(19.004) matrix(.93617 0 0 .93566 -96.783 -244.76)"><rect width="17.091" height="17.1" x="206.99" y="261.98" fill="none" color="#000"/><g transform="matrix(.50892 0 0 .5174 181.79 197.56)"><rect width="33.583" height="33.05" x="49.512" y="124.5" color="#000" opacity=".12" rx="16.791" ry="16.525"/><rect width="29.385" height="28.919" x="51.611" y="126.56" fill="url(#ax)" stroke-width="0" color="#000" rx="14.692" ry="14.46"/><rect width="29.385" height="28.919" x="51.611" y="126.56" fill="#fff" stroke-width="0" color="#000" opacity=".15" rx="14.692" ry="14.46"/><rect width="29.385" height="26.853" x="51.611" y="128.63" fill="url(#bg)" stroke-width="0" color="#000" rx="14.692" ry="13.427"/></g></g></g><rect width="6" height="6" x="121" y="5.36" fill="#fff" stroke-width="1.5" color="#000" filter="url(#bp)" rx="2.998" ry="3"/></g><g id="radio-mixed-dark" transform="translate(88,11.64)"><g><g><g transform="translate(19) translate(19.004) matrix(.93617 0 0 .93566 -96.783 -244.76)"><rect width="17.091" height="17.1" x="206.99" y="261.98" fill="none" color="#000"/><g transform="matrix(.50892 0 0 .5174 181.79 197.56)"><rect width="33.583" height="33.05" x="49.512" y="124.5" color="#000" opacity=".12" rx="16.791" ry="16.525"/><rect width="29.385" height="28.919" x="51.611" y="126.56" fill="url(#ax)" stroke-width="0" color="#000" rx="14.692" ry="14.46"/><rect width="29.385" height="28.919" x="51.611" y="126.56" fill="#fff" stroke-width="0" color="#000" opacity=".15" rx="14.692" ry="14.46"/><rect width="29.385" height="26.853" x="51.611" y="128.63" fill="url(#bg)" stroke-width="0" color="#000" rx="14.692" ry="13.427"/></g></g></g></g><rect width="2" height="8" x="-9.362" y="139" fill="#fff" ry="1" transform="rotate(-90)"/></g><g id="checkbox-unchecked-dark"><g transform="translate(107,11.64) translate(0,-30)"><rect width="16" height="16" x="17" y="30.362" fill="none" color="#000"/><rect width="16" height="16" x="17" y="30.362" color="#000" opacity=".12" rx="4" ry="4"/><rect width="14" height="14" x="18" y="31.362" fill="url(#aw)" color="#000" rx="3" ry="3"/><rect width="14" height="13" x="18" y="32.362" fill="url(#ba)" color="#000" rx="3" ry="3"/></g></g><g id="radio-unchecked-dark"><g transform="translate(87.004,11.64) matrix(.93617 0 0 .93566 -96.783 -244.76)"><rect width="17.091" height="17.1" x="206.99" y="261.98" fill="none" color="#000"/><g transform="matrix(.50892 0 0 .5174 181.79 197.56)"><rect width="33.583" height="33.05" x="49.512" y="124.5" color="#000" opacity=".12" rx="16.791" ry="16.314"/><rect width="29.385" height="28.919" x="51.611" y="126.56" fill="url(#ar)" color="#000" rx="14.693" ry="14.274"/><rect width="29.385" height="26.853" x="51.611" y="128.63" fill="url(#ao)" color="#000" rx="14.693" ry="13.427"/></g></g></g><g id="checkbox-checked-insensitive-dark"><g opacity=".6"><g transform="translate(8.1213,279.53) translate(118,-248.89) translate(0,-30)"><rect width="16" height="16" x="17" y="30.362" fill="none" color="#000"/><rect width="16" height="16" x="16.879" y="30.362" color="#000" opacity=".24" rx="4" ry="4"/><rect width="14" height="14" x="17.879" y="31.362" fill="url(#au)" color="#000" rx="3" ry="3"/><rect width="14" height="13" x="17.879" y="32.362" fill="url(#an)" color="#000" rx="3" ry="3"/></g></g><g><g><g transform="translate(8.1213,279.53) translate(134.91,-1284.9) rotate(45,7.5,1026.4) translate(12.374,11.531)"><g fill="#3b3c3e"><path fill="#ccc" d="m154.16 34.881c-0.25562 0-0.51116 0.0971-0.70703 0.29297l-3.5352 3.5352-1.4316-1.4297c-0.38234-0.38234-1.0048-0.37611-1.3965 0.01563-0.39174 0.39173-0.39992 1.0161-0.0176 1.3984l2.1387 2.1367 0.0176 0.01758c0.38234 0.38234 1.0048 0.37416 1.3965-0.01758l4.2422-4.2422c0.39174-0.39174 0.39174-1.0223 0-1.4141-0.19587-0.19587-0.45141-0.29297-0.70703-0.29297z" filter="url(#bo)" transform="translate(-3,-5) rotate(-45,1281.1,703.72)"/></g><rect width="3" height="1" x="5" y="-8" fill-opacity="0" transform="translate(0,1036.4)"/></g></g></g></g><g id="checkbox-mixed-insensitive-dark"><g opacity=".6"><g transform="translate(8.1213,279.53) translate(137,-248.89) translate(0,-30)"><rect width="16" height="16" x="17" y="30.362" fill="none" color="#000"/><rect width="16" height="16" x="16.879" y="30.362" color="#000" opacity=".24" rx="4" ry="4"/><rect width="14" height="14" x="17.879" y="31.362" fill="url(#au)" color="#000" rx="3" ry="3"/><rect width="14" height="13" x="17.879" y="32.362" fill="url(#an)" color="#000" rx="3" ry="3"/></g></g><g><g><g transform="translate(8.1213,279.53) translate(154,-1284.9) rotate(45,7.5,1026.4) translate(12.374,11.531)"><g transform="translate(-3,-5)"><rect width="2" height="8" x="-738.8" y="-725.95" fill="#ccc" ry="1" transform="rotate(225)"/></g><rect width="3" height="1" x="5" y="-8" fill-opacity="0" transform="translate(0,1036.4)"/></g></g></g></g><g id="radio-checked-insensitive-dark" transform="translate(8,279.53)"><g opacity=".6"><g transform="translate(99.004,-248.89) matrix(.93617 0 0 .93566 -96.783 -244.76)"><rect width="17.091" height="17.1" x="206.99" y="261.98" fill="none" color="#000"/><g transform="matrix(.50892 0 0 .5174 181.79 197.56)"><rect width="33.583" height="33.05" x="49.512" y="124.5" color="#000" opacity=".24" rx="16.265" ry="16.314"/><rect width="29.385" height="28.919" x="51.611" y="126.56" fill="url(#ar)" color="#000" rx="14.232" ry="14.274"/><rect width="29.385" height="26.853" x="51.611" y="128.63" fill="url(#ao)" color="#000" rx="14.693" ry="13.427"/></g></g></g><rect width="6" height="6" x="201" y="-243.53" fill="#ccc" stroke-width="1.5" color="#000" filter="url(#bq)" rx="2.998" ry="3"/></g><g id="radio-mixed-insensitive-dark"><g opacity=".6"><g transform="translate(8,279.53) translate(118,-248.89) matrix(.93617 0 0 .93566 -96.783 -244.76)"><rect width="17.091" height="17.1" x="206.99" y="261.98" fill="none" color="#000"/><g transform="matrix(.50892 0 0 .5174 181.79 197.56)"><rect width="33.583" height="33.05" x="49.512" y="124.5" color="#000" opacity=".24" rx="16.265" ry="16.525"/><rect width="29.385" height="28.919" x="51.611" y="126.56" fill="url(#ar)" color="#000" rx="14.232" ry="14.46"/><rect width="29.385" height="26.853" x="51.611" y="128.63" fill="url(#ao)" color="#000" rx="14.693" ry="13.255"/></g></g></g><g transform="translate(8,279.53) translate(3.9233e-6,54.871)"><rect width="2" height="8" x="294.64" y="219" fill="#ccc" ry="1" transform="rotate(-90)"/></g></g><g id="checkbox-unchecked-insensitive-dark" opacity=".6"><g transform="translate(107,30.64) translate(0,-30)"><rect width="16" height="16" x="17" y="30.362" fill="none" color="#000"/><rect width="16" height="16" x="17" y="30.362" color="#000" opacity=".24" rx="4" ry="4"/><rect width="14" height="14" x="18" y="31.362" fill="url(#aw)" color="#000" rx="3" ry="3"/><rect width="14" height="13" x="18" y="32.362" fill="url(#ba)" color="#000" rx="3" ry="3"/></g></g><g id="radio-unchecked-insensitive-dark" opacity=".6"><g transform="translate(87.004,30.64) matrix(.93617 0 0 .93566 -96.783 -244.76)"><rect width="17.091" height="17.1" x="206.99" y="261.98" fill="none" color="#000"/><g transform="matrix(.50892 0 0 .5174 181.79 197.56)"><rect width="29.385" height="28.919" x="51.611" y="126.56" fill="url(#ar)" color="#000" rx="14.232" ry="14.274"/><rect width="29.385" height="26.853" x="51.611" y="128.63" fill="url(#ao)" color="#000" rx="14.692" ry="13.255"/><rect width="33.583" height="33.05" x="49.512" y="124.5" color="#000" opacity=".24" rx="16.265" ry="16.314"/></g></g></g><g id="checkbox-checked-selectionmode-dark" transform="translate(-341,-128.36)"><rect width="32" height="32" x="466" y="183.36" opacity=".12" rx="7" ry="7"/><rect width="30" height="30" x="467" y="184.36" fill="url(#linearGradient2482)" stroke-width="0" rx="6" ry="6"/><rect width="30" height="30" x="467" y="184.36" fill="#fff" stroke-width="0" opacity=".15" rx="6" ry="6"/><rect width="30" height="29" x="467" y="185.36" fill="url(#bd)" stroke-width="0" rx="6" ry="6"/><g><path fill="#fff" d="m491.36 188.95-9.5312 9.5625-4.7812-4.7812-3.1876 3.1875 4.7813 4.7812 3.1875 3.1875 3.1562-3.1875 9.5626-9.5625z" transform="translate(-2.2045,1.973)"/></g><rect width="40" height="40" x="462" y="179.36" fill="none" stroke-width="0" rx="2" ry="2"/></g><g id="checkbox-selectionmode-dark" transform="translate(-296,-128.36)"><rect width="31" height="31" x="466.5" y="183.86" fill="url(#aj)" stroke="#2b2b2b" rx="5.5" ry="5.5" style="paint-order:normal"/><g><path fill="#ccc" d="m491.36 188.95-9.5312 9.5625-4.7812-4.7812-3.1876 3.1875 4.7813 4.7812 3.1875 3.1875 3.1562-3.1875 9.5626-9.5625z" opacity=".55" transform="translate(-2.2045,1.973)"/></g><rect width="40" height="40" x="462" y="179.36" fill="none" stroke-width="0" rx="2" ry="2"/></g><g id="checkbox-checked-insensitive"><g opacity=".55"><g transform="translate(8,279.64) translate(-3,-249) translate(0,-30)"><rect width="16" height="16" x="17" y="30.362" fill="none" color="#000"/><rect width="13" height="13" x="18.5" y="31.862" fill="#fff" stroke="#8e8e8e" stroke-linejoin="round" color="#000" rx="2.5" ry="2.5"/></g></g><g><g><g transform="translate(8,279.64) translate(13.903,-1285) rotate(45,7.5,1026.4) translate(12.374,11.531)"><g fill="#3b3c3e"><path fill="#8e8e8e" d="m33.277 34.881c-0.25562 0-0.51116 0.0971-0.70703 0.29297l-3.5352 3.5352-1.4082-1.4062c-0.39533-0.39533-1.0282-0.39955-1.4199-0.0078-0.39173 0.39173-0.38947 1.0265 0.0059 1.4219l2.1094 2.1074c0.0011 0.0011 0.0028 8.92e-4 0.0039 2e-3 0.0011 0.0011 8.84e-4 0.0028 2e-3 0.0039 0.0966 0.0966 0.20962 0.16784 0.32812 0.2168 0.24131 0.09969 0.51204 0.10177 0.75391 0.0039 0.12067-0.04864 0.2341-0.12277 0.33203-0.2207l4.2422-4.2422c0.39174-0.39174 0.39174-1.0223 0-1.4141-0.19587-0.19587-0.45141-0.29297-0.70703-0.29297z" transform="translate(-3,-5) rotate(-45,1220.7,557.81)"/></g><rect width="3" height="1" x="5" y="-8" fill-opacity="0" transform="translate(0,1036.4)"/></g></g></g></g><g id="checkbox-mixed-insensitive"><g opacity=".55"><g transform="translate(8,279.64) translate(16,-249) translate(0,-30)"><rect width="16" height="16" x="17" y="30.362" fill="none" color="#000"/><rect width="13" height="13" x="18.5" y="31.862" fill="#fff" stroke="#8e8e8e" stroke-linejoin="round" color="#000" rx="2.5" ry="2.5"/></g></g><g fill="#3b3c3e" transform="translate(8,279.64) rotate(45,1559.2,435.97)"><rect width="2" height="8" x="-735.18" y="-727.95" fill="#8e8e8e" ry="1" transform="rotate(225)"/></g></g><g id="checkbox-checked-selectionmode" transform="translate(-462,-128.36)"><rect width="40" height="40" x="462" y="179.36" fill="none" stroke-width="0" rx="2" ry="2"/><rect width="32" height="32" x="466" y="183.36" fill="url(#ag)" stroke-width="0" rx="6" ry="6"/><g><path fill="url(#w)" d="m491.36 188.95-9.5312 9.5625-4.7812-4.7812-3.1876 3.1875 4.7813 4.7812 3.1875 3.1875 3.1562-3.1875 9.5626-9.5625z" transform="translate(-2.2045,1.973)"/></g></g><g id="checkbox-selectionmode" transform="translate(-417,-128.36)"><rect width="31" height="31" x="466.5" y="183.86" fill="url(#bb)" stroke="#ccc" rx="5.5" ry="5.5"/><g><path fill="#adadad" d="m491.36 188.95-9.5312 9.5625-4.7812-4.7812-3.1876 3.1875 4.7813 4.7812 3.1875 3.1875 3.1562-3.1875 9.5626-9.5625z" opacity=".4" transform="translate(-2.2045,1.973)"/></g><rect width="40" height="40" x="462" y="179.36" fill="none" stroke-width="0" rx="2" ry="2"/></g><g id="checkbox-checked"><g><g transform="translate(-14,11.64) translate(19) translate(0,-30)"><rect width="16" height="16" x="17" y="30.362" fill="none" color="#000"/><rect width="14" height="14" x="18" y="31.362" fill="url(#j)" stroke-width="0" color="#000" rx="3" ry="3"/></g></g><g><g><g transform="translate(-14,11.64) translate(36,-1036) rotate(45,7.5,1026.4) translate(12.374,11.531)"><g><path fill="#000" d="m11.69 1028.1c-0.17574 0.1758-0.2845 0.4185-0.2845 0.6878v5.0271h-2.0232c-0.54071 0-0.97645 0.4446-0.97642 0.9986 0 0.554 0.43571 1.0012 0.97639 1.0012h3.0508c0.53865 0 0.97227-0.4337 0.97227-0.9723v-0.028l0.0014-6.0284c0-0.5386-0.43363-0.9723-0.97227-0.9723h-0.05663c-0.26932 0-0.51204 0.1088-0.68778 0.2845z" filter="url(#filter1747)" opacity=".15" transform="translate(-3,-5)"/><path fill="url(#s)" d="m33.277 15.869c-0.24853 0-0.49706 0.09472-0.6875 0.28516l-3.5547 3.5547-1.4316-1.4297c-0.38234-0.38234-1.0048-0.37611-1.3965 0.01563-0.39173 0.39173-0.39992 1.0161-0.01758 1.3984l2.1191 2.1172 0.03911 0.03911c0.38088 0.38088 0.99412 0.38088 1.375 0l0.01953-0.01953 4.2637-4.2617c0.38088-0.38088 0.38088-0.99412 0-1.375l-0.04102-0.03906c-0.19044-0.19044-0.43897-0.28516-0.6875-0.28516z" filter="url(#br)" transform="translate(-3,-5) rotate(-45,1243.6,548.31)"/></g><rect width="3" height="1" x="5" y="-8" fill-opacity="0" transform="translate(0,1036.4)"/></g></g></g></g><g id="checkbox-mixed"><g><g transform="translate(5,11.64) translate(19) translate(0,-30)"><rect width="16" height="16" x="17" y="30.362" fill="none" color="#000"/><rect width="14" height="14" x="18" y="31.362" fill="url(#j)" stroke-width="0" color="#000" rx="3" ry="3"/></g></g><g><g><g transform="translate(5,11.64) translate(36,-1036) rotate(45,7.5,1026.4) translate(12.374,11.531)"><g><path fill="#000" d="m8.6664 1035.4c-0.39174-0.3917-0.39174-1.0225 0-1.4142l4.2426-4.2427c0.39174-0.3917 1.0225-0.3917 1.4142 0 0.39174 0.3918 0.39174 1.0225 0 1.4143l-4.2426 4.2426c-0.39174 0.3917-1.0225 0.3917-1.4142 0z" filter="url(#filter1765)" opacity=".15" transform="translate(-3,-5)"/><path fill="url(#t)" d="m-737.8-725.98c0.554 0 1 0.446 1 1v6c0 0.554-0.446 1-1 1s-1-0.446-1-1v-6c0-0.554 0.446-1 1-1z" transform="translate(-3,-5) rotate(225)"/></g><rect width="3" height="1" x="5" y="-8" fill-opacity="0" transform="translate(0,1036.4)"/></g></g></g></g><g id="radio-checked"><g><g transform="translate(-33,11.64) translate(19.004) matrix(.93617 0 0 .93566 -96.783 -244.76)"><rect width="17.091" height="17.1" x="206.99" y="261.98" fill="none" color="#000"/><g transform="matrix(.50892 0 0 .5174 181.79 197.56)"><rect width="29.385" height="28.919" x="51.611" y="126.56" fill="url(#ax)" stroke-width="0" color="#000" rx="14.692" ry="14.46"/></g></g></g><path fill="#000" stroke-width="1.5" d="m124 5.7962h3e-3c1.6612 0 2.9985 1.3381 2.9985 3.0001 0 1.6621-1.3373 3.0002-2.9985 3.0002h-3e-3c-1.6612 0-2.9985-1.3381-2.9985-3.0002s1.3373-3.0001 2.9985-3.0001z" color="#000" filter="url(#filter1754)" opacity=".15" transform="translate(-33,11.64)"/><path fill="url(#u)" stroke-width="1.5" d="m124 5.36h3e-3c1.6612 0 2.9985 1.3381 2.9985 3.0001 0 1.6621-1.3373 3.0002-2.9985 3.0002h-3e-3c-1.6612 0-2.9985-1.3381-2.9985-3.0002s1.3373-3.0001 2.9985-3.0001z" color="#000" filter="url(#bm)" transform="translate(-33,11.64)"/></g><g id="radio-mixed"><g><g><g transform="translate(-33,11.64) translate(19) translate(19.004) matrix(.93617 0 0 .93566 -96.783 -244.76)"><rect width="17.091" height="17.1" x="206.99" y="261.98" fill="none" color="#000"/><g transform="matrix(.50892 0 0 .5174 181.79 197.56)"><rect width="29.385" height="28.919" x="51.611" y="126.56" fill="url(#ax)" stroke-width="0" color="#000" rx="14.692" ry="14.46"/></g></g></g></g><path fill="#000" d="m139 8.8152c0-0.554 0.446-1 1-1h6c0.554 0 1 0.446 1 1s-0.446 1-1 1h-6c-0.554 0-1-0.446-1-1z" filter="url(#filter1868)" opacity=".15" transform="translate(-33,11.64)"/><path fill="url(#v)" d="m-8.3622 139c0.554 0 1 0.446 1 1v6c0 0.554-0.446 1-1 1s-1-0.446-1-1v-6c0-0.554 0.446-1 1-1z" transform="translate(-33,11.64) rotate(-90)"/></g><g id="checkbox-unchecked"><g transform="translate(-14,11.64) translate(0,-30)"><rect width="16" height="16" x="17" y="30.362" fill="none" color="#000"/><rect width="13" height="13" x="18.5" y="31.862" fill="#fff" stroke="#a4a4a4" stroke-linejoin="round" stroke-opacity=".804" color="#000" rx="2.5" ry="2.5"/></g></g><g id="radio-unchecked"><g transform="translate(-33.996,11.64) matrix(.93617 0 0 .93566 -96.783 -244.76)"><rect width="17.091" height="17.1" x="206.99" y="261.98" fill="none" color="#000"/><g transform="matrix(.50892 0 0 .5174 181.79 197.56)"><rect width="27.304" height="26.836" x="52.66" y="127.6" fill="#fff" stroke="#a4a4a4" stroke-linejoin="round" stroke-opacity=".804" stroke-width="2.082" color="#000" rx="13.224" ry="13.246"/></g></g></g><g id="checkbox-unchecked-insensitive" opacity=".55"><g transform="translate(-14,30.64) translate(0,-30)"><rect width="16" height="16" x="17" y="30.362" fill="none" color="#000"/><rect width="13" height="13" x="18.5" y="31.862" fill="#fff" stroke="#8e8e8e" stroke-linejoin="round" color="#000" rx="2.5" ry="2.5"/></g></g><g id="radio-unchecked-insensitive" opacity=".55"><g transform="translate(-33.996,30.64) matrix(.93617 0 0 .93566 -96.783 -244.76)"><rect width="17.091" height="17.1" x="206.99" y="261.98" fill="none" color="#000"/><g transform="matrix(.50892 0 0 .5174 181.79 197.56)"><rect width="27.304" height="26.836" x="52.66" y="127.6" fill="#fff" stroke="#8e8e8e" stroke-linejoin="round" stroke-width="2.082" color="#000" rx="13.224" ry="13.246"/></g></g></g><g id="checkbox-checked-selected"><g><g transform="translate(-14,110.64) translate(19) translate(0,-30)"><rect width="16" height="16" x="17" y="30.362" fill="none" color="#000"/><rect width="14" height="14" x="18" y="31.362" fill="url(#r)" stroke-width="0" color="#000" rx="2" ry="2"/></g></g><g><g><g transform="translate(-14,110.64) translate(36,-1036) rotate(45,7.5,1026.4) translate(12.374,11.531)"><g transform="translate(-3,-5)"><rect width="5" height="2" x="8" y="1033.4" fill="url(#f)" rx="1.026" ry="1"/><rect width="2" height="8" x="11" y="1027.4" fill="url(#e)" ry="1"/></g><rect width="3" height="1" x="5" y="-8" fill-opacity="0" transform="translate(0,1036.4)"/></g></g></g></g><g id="checkbox-mixed-selected"><g><g transform="translate(5,110.64) translate(19) translate(0,-30)"><rect width="16" height="16" x="17" y="30.362" fill="none" color="#000"/><rect width="14" height="14" x="18" y="31.362" fill="url(#r)" stroke-width="0" color="#000" rx="2" ry="2"/></g></g><g><g><g transform="translate(5,110.64) translate(36,-1036) rotate(45,7.5,1026.4) translate(12.374,11.531)"><g fill="#3b3c3e" transform="translate(-3,-5)"><rect width="2" height="8" x="-738.8" y="-725.95" fill="url(#g)" ry="1" transform="rotate(225)"/></g><rect width="3" height="1" x="5" y="-8" fill-opacity="0" transform="translate(0,1036.4)"/></g></g></g></g><g id="radio-checked-selected" transform="translate(-33,110.64)"><g><g transform="translate(19.004) matrix(.93617 0 0 .93566 -96.783 -244.76)"><rect width="17.091" height="17.1" x="206.99" y="261.98" fill="none" color="#000"/><g transform="matrix(.50892 0 0 .5174 181.79 197.56)"><rect width="29.385" height="28.919" x="51.611" y="126.56" fill="url(#d)" stroke-width="0" color="#000" rx="14.692" ry="14.46"/></g></g></g><rect width="6" height="6" x="121" y="5.36" fill="url(#h)" stroke-width="1.5" color="#000" rx="2.998" ry="3"/></g><g id="radio-mixed-selected" transform="translate(-33,110.64)"><g><g><g transform="translate(19) translate(19.004) matrix(.93617 0 0 .93566 -96.783 -244.76)"><rect width="17.091" height="17.1" x="206.99" y="261.98" fill="none" color="#000"/><g transform="matrix(.50892 0 0 .5174 181.79 197.56)"><rect width="29.385" height="28.919" x="51.611" y="126.56" fill="url(#d)" stroke-width="0" color="#000" rx="14.692" ry="14.46"/></g></g></g></g><rect width="2" height="8" x="-9.362" y="139" fill="url(#i)" ry="1" transform="rotate(-90)"/></g><g id="checkbox-unchecked-selected"><g transform="translate(-14,110.64) translate(0,-30)"><rect width="16" height="16" x="17" y="30.362" fill="none" color="#000"/><rect width="13" height="13" x="18.5" y="31.862" fill="#fff" fill-opacity=".392" stroke="url(#r)" stroke-linejoin="round" color="#000" opacity=".75" rx="2" ry="2"/></g></g><g id="radio-unchecked-selected"><g transform="translate(-33.996,110.64) matrix(.93617 0 0 .93566 -96.783 -244.76)"><rect width="17.091" height="17.1" x="206.99" y="261.98" fill="none" color="#000"/><g transform="matrix(.50892 0 0 .5174 181.79 197.56)"><rect width="27.304" height="26.836" x="52.66" y="127.6" fill="#fff" fill-opacity=".392" stroke="url(#p)" stroke-linejoin="round" stroke-width="2.082" color="#000" opacity=".75" rx="13.224" ry="13.246"/></g></g></g><g id="checkbox-checked-insensitive-selected" opacity=".55"><g><g transform="translate(-14,129.64) translate(19) translate(0,-30)"><rect width="16" height="16" x="17" y="30.362" fill="none" color="#000"/><rect width="14" height="14" x="18" y="31.362" fill="url(#r)" stroke-width="0" color="#000" rx="2" ry="2"/></g></g><g><g><g transform="translate(-14,129.64) translate(36,-1036) rotate(45,7.5,1026.4) translate(12.374,11.531)"><g transform="translate(-3,-5)"><rect width="5" height="2" x="8" y="1033.4" fill="url(#f)" rx="1.034" ry="1"/><rect width="2" height="8" x="11" y="1027.4" fill="url(#e)" ry="1"/></g><rect width="3" height="1" x="5" y="-8" fill-opacity="0" transform="translate(0,1036.4)"/></g></g></g></g><g id="checkbox-mixed-insensitive-selected" opacity=".55"><g><g transform="translate(5,129.64) translate(19) translate(0,-30)"><rect width="16" height="16" x="17" y="30.362" fill="none" color="#000"/><rect width="14" height="14" x="18" y="31.362" fill="url(#r)" stroke-width="0" color="#000" rx="2" ry="2"/></g></g><g><g><g transform="translate(5,129.64) translate(36,-1036) rotate(45,7.5,1026.4) translate(12.374,11.531)"><g fill="#3b3c3e" transform="translate(-3,-5)"><rect width="2" height="8" x="-738.8" y="-725.95" fill="url(#g)" ry="1" transform="rotate(225)"/></g><rect width="3" height="1" x="5" y="-8" fill-opacity="0" transform="translate(0,1036.4)"/></g></g></g></g><g id="radio-checked-insensitive-selected" opacity=".55" transform="translate(-33,129.64)"><g><g transform="translate(19.004) matrix(.93617 0 0 .93566 -96.783 -244.76)"><rect width="17.091" height="17.1" x="206.99" y="261.98" fill="none" color="#000"/><g transform="matrix(.50892 0 0 .5174 181.79 197.56)"><rect width="29.385" height="28.919" x="51.611" y="126.56" fill="url(#d)" stroke-width="0" color="#000" rx="14.692" ry="14.46"/></g></g></g><rect width="6" height="6" x="121" y="5.36" fill="url(#h)" stroke-width="1.5" color="#000" rx="2.998" ry="3"/></g><g id="radio-mixed-insensitive-selected" opacity=".55" transform="translate(-33,129.64)"><g><g><g transform="translate(19) translate(19.004) matrix(.93617 0 0 .93566 -96.783 -244.76)"><rect width="17.091" height="17.1" x="206.99" y="261.98" fill="none" color="#000"/><g transform="matrix(.50892 0 0 .5174 181.79 197.56)"><rect width="29.385" height="28.919" x="51.611" y="126.56" fill="url(#d)" stroke-width="0" color="#000" rx="14.692" ry="14.46"/></g></g></g></g><rect width="2" height="8" x="-9.362" y="139" fill="url(#i)" ry="1" transform="rotate(-90)"/></g><g id="checkbox-unchecked-insensitive-selected" opacity=".55"><g transform="translate(-14,129.64) translate(0,-30)"><rect width="16" height="16" x="17" y="30.362" fill="none" color="#000"/><rect width="13" height="13" x="18.5" y="31.862" fill="#fff" fill-opacity=".392" stroke="url(#r)" stroke-linejoin="round" color="#000" opacity=".5" rx="2" ry="2"/></g></g><g id="radio-unchecked-insensitive-selected" opacity=".55"><g transform="translate(-33.996,129.64) matrix(.93617 0 0 .93566 -96.783 -244.76)"><rect width="17.091" height="17.1" x="206.99" y="261.98" fill="none" color="#000"/><g transform="matrix(.50892 0 0 .5174 181.79 197.56)"><rect width="27.304" height="26.836" x="52.66" y="127.6" fill="#fff" fill-opacity=".392" stroke="url(#p)" stroke-linejoin="round" stroke-width="2.082" color="#000" opacity=".5" rx="13.224" ry="13.246"/></g></g></g><rect width="28" height="28" x="210" y="57" fill="url(#linearGradient1903)" stroke-width="1.183" rx="0" ry="6" style="paint-order:stroke fill markers"/><g id="combobox-arrow-dark" transform="translate(116 -.007)"><rect width="28" height="28" x="94" y="57.007" stroke-width="1.556" opacity="0" style="paint-order:markers fill stroke"/><g fill="#fff" fill-rule="evenodd"><path d="m89.779-212.11-4.5681 4.2826s0 1.2236 1.3094 1.2193l3.585-3.6665 3.5892 3.6708c1.3052 0 1.3052-1.2236 1.3052-1.2236l-4.5681-4.2826s-0.32629-0.30589-0.65258 0z" transform="matrix(1.1178,0,0,1.1178,7.2803,299.26)"/><path d="m89.779-197.18-4.5681-4.2826s0-1.2236 1.3094-1.2193l3.585 3.6665 3.5892-3.6708c1.3052 0 1.3052 1.2236 1.3052 1.2236l-4.5681 4.2826s-0.32629 0.30589-0.65258 0z" transform="matrix(1.1178,0,0,1.1178,7.2803,299.26)"/></g></g><g id="radio-checked-insensitive" transform="translate(8,279.64)"><g opacity=".55"><g transform="translate(-21.996,-249) matrix(.93617 0 0 .93566 -96.783 -244.76)"><rect width="17.091" height="17.1" x="206.99" y="261.98" fill="none" color="#000"/><g transform="matrix(.50892 0 0 .5174 181.79 197.56)"><rect width="27.304" height="26.836" x="52.66" y="127.6" fill="#fff" stroke="#8e8e8e" stroke-linejoin="round" stroke-width="2.082" color="#000" rx="13.224" ry="13.246"/></g></g></g><rect width="6" height="6" x="80" y="-243.64" fill="#8e8e8e" stroke-width="1.5" color="#000" rx="2.998" ry="3"/></g><g id="radio-mixed-insensitive" transform="translate(8,279.64)"><g opacity=".55"><g transform="translate(-2.9957,-249) matrix(.93617 0 0 .93566 -96.783 -244.76)"><rect width="17.091" height="17.1" x="206.99" y="261.98" fill="none" color="#000"/><g transform="matrix(.50892 0 0 .5174 181.79 197.56)"><rect width="27.304" height="26.836" x="52.66" y="127.6" fill="#fff" stroke="#8e8e8e" stroke-linejoin="round" stroke-width="2.082" color="#000" rx="13.224" ry="13.246"/></g></g></g><rect width="2" height="8" x="239.64" y="98" fill="#8e8e8e" ry="1" transform="rotate(-90)"/></g><g id="slider-horz-scale-has-marks-below" transform="translate(-141,258.64)"><rect width="24" height="24" x="265" y="-148.64" stroke-width=".566" opacity="0" style="paint-order:fill markers stroke"/><path fill="#fff" stroke="#000" stroke-linecap="square" stroke-opacity=".196" stroke-width="2" d="m272-145.64c-2 0-3 2-3 3v6l8 9 8-9v-6c0-1-1-3-3-3z" style="paint-order:stroke markers fill"/></g><g id="slider-horz-scale-has-marks-below-hover" transform="translate(-111,258.64)"><rect width="24" height="24" x="265" y="-148.64" stroke-width=".566" opacity="0" style="paint-order:fill markers stroke"/><path fill="#f9f9f9" stroke="#000" stroke-linecap="square" stroke-opacity=".196" stroke-width="2" d="m272-145.64c-2 0-3 2-3 3v6l8 9 8-9v-6c0-1-1-3-3-3z" style="paint-order:stroke markers fill"/></g><g id="slider-horz-scale-has-marks-below-active" transform="translate(-81,258.64)"><rect width="24" height="24" x="265" y="-148.64" stroke-width=".566" opacity="0" style="paint-order:fill markers stroke"/><path fill="#f2f2f2" stroke="#000" stroke-linecap="square" stroke-opacity=".196" stroke-width="2" d="m272-145.64c-2 0-3 2-3 3v6l8 9 8-9v-6c0-1-1-3-3-3z" style="paint-order:stroke markers fill"/></g><g id="slider-horz-scale-has-marks-below-insensitive" transform="translate(-51,258.64)"><rect width="24" height="24" x="265" y="-148.64" stroke-width=".566" opacity="0" style="paint-order:fill markers stroke"/><path fill="#ececec" stroke="#000" stroke-linecap="square" stroke-opacity=".196" stroke-width="2" d="m272-145.64c-2 0-3 2-3 3v6l8 9 8-9v-6c0-1-1-3-3-3z" style="paint-order:stroke markers fill"/></g><g id="slider-horz-scale-has-marks-above" transform="matrix(1,0,0,-1,-141,15.36)"><rect width="24" height="24" x="265" y="-148.64" stroke-width=".566" opacity="0" style="paint-order:fill markers stroke"/><path fill="#fff" stroke="#000" stroke-linecap="square" stroke-opacity=".196" stroke-width="2" d="m272-145.64c-2 0-3 2-3 3v6l8 9 8-9v-6c0-1-1-3-3-3z" style="paint-order:stroke markers fill"/></g><g id="slider-horz-scale-has-marks-above-hover" transform="matrix(1,0,0,-1,-111,15.36)"><rect width="24" height="24" x="265" y="-148.64" stroke-width=".566" opacity="0" style="paint-order:fill markers stroke"/><path fill="#f9f9f9" stroke="#000" stroke-linecap="square" stroke-opacity=".196" stroke-width="2" d="m272-145.64c-2 0-3 2-3 3v6l8 9 8-9v-6c0-1-1-3-3-3z" style="paint-order:stroke markers fill"/></g><g id="slider-horz-scale-has-marks-above-active" transform="matrix(1,0,0,-1,-81,15.36)"><rect width="24" height="24" x="265" y="-148.64" stroke-width=".566" opacity="0" style="paint-order:fill markers stroke"/><path fill="#f2f2f2" stroke="#000" stroke-linecap="square" stroke-opacity=".196" stroke-width="2" d="m272-145.64c-2 0-3 2-3 3v6l8 9 8-9v-6c0-1-1-3-3-3z" style="paint-order:stroke markers fill"/></g><g id="slider-horz-scale-has-marks-above-insensitive" transform="matrix(1,0,0,-1,-51,15.36)"><rect width="24" height="24" x="265" y="-148.64" stroke-width=".566" opacity="0" style="paint-order:fill markers stroke"/><path fill="#ececec" stroke="#000" stroke-linecap="square" stroke-opacity=".196" stroke-width="2" d="m272-145.64c-2 0-3 2-3 3v6l8 9 8-9v-6c0-1-1-3-3-3z" style="paint-order:stroke markers fill"/></g><g id="slider-vert-scale-has-marks-below" transform="rotate(-90,365.82,93.182)"><rect width="24" height="24" x="265" y="-148.64" stroke-width=".566" opacity="0" style="paint-order:fill markers stroke"/><path fill="#fff" stroke="#000" stroke-linecap="square" stroke-opacity=".196" stroke-width="2" d="m272-145.64c-2 0-3 2-3 3v6l8 9 8-9v-6c0-1-1-3-3-3z" style="paint-order:stroke markers fill"/></g><g id="slider-vert-scale-has-marks-below-hover" transform="rotate(-90,380.82,78.182)"><rect width="24" height="24" x="265" y="-148.64" stroke-width=".566" opacity="0" style="paint-order:fill markers stroke"/><path fill="#f9f9f9" stroke="#000" stroke-linecap="square" stroke-opacity=".196" stroke-width="2" d="m272-145.64c-2 0-3 2-3 3v6l8 9 8-9v-6c0-1-1-3-3-3z" style="paint-order:stroke markers fill"/></g><g id="slider-vert-scale-has-marks-below-active" transform="rotate(-90,395.82,63.182)"><rect width="24" height="24" x="265" y="-148.64" stroke-width=".566" opacity="0" style="paint-order:fill markers stroke"/><path fill="#f2f2f2" stroke="#000" stroke-linecap="square" stroke-opacity=".196" stroke-width="2" d="m272-145.64c-2 0-3 2-3 3v6l8 9 8-9v-6c0-1-1-3-3-3z" style="paint-order:stroke markers fill"/></g><g id="slider-vert-scale-has-marks-below-insensitive" transform="rotate(-90,410.82,48.182)"><rect width="24" height="24" x="265" y="-148.64" stroke-width=".566" opacity="0" style="paint-order:fill markers stroke"/><path fill="#ececec" stroke="#000" stroke-linecap="square" stroke-opacity=".196" stroke-width="2" d="m272-145.64c-2 0-3 2-3 3v6l8 9 8-9v-6c0-1-1-3-3-3z" style="paint-order:stroke markers fill"/></g><g id="slider-vert-scale-has-marks-above" transform="matrix(0 -1 -1 0 -.6378 489)"><rect width="24" height="24" x="265" y="-148.64" stroke-width=".566" opacity="0" style="paint-order:fill markers stroke"/><path fill="#fff" stroke="#000" stroke-linecap="square" stroke-opacity=".196" stroke-width="2" d="m272-145.64c-2 0-3 2-3 3v6l8 9 8-9v-6c0-1-1-3-3-3z" style="paint-order:stroke markers fill"/></g><g id="slider-vert-scale-has-marks-above-hover" transform="matrix(0,-1,-1,0,29.362,489)"><rect width="24" height="24" x="265" y="-148.64" stroke-width=".566" opacity="0" style="paint-order:fill markers stroke"/><path fill="#f9f9f9" stroke="#000" stroke-linecap="square" stroke-opacity=".196" stroke-width="2" d="m272-145.64c-2 0-3 2-3 3v6l8 9 8-9v-6c0-1-1-3-3-3z" style="paint-order:stroke markers fill"/></g><g id="slider-vert-scale-has-marks-above-active" transform="matrix(0,-1,-1,0,59.362,489)"><rect width="24" height="24" x="265" y="-148.64" stroke-width=".566" opacity="0" style="paint-order:fill markers stroke"/><path fill="#f2f2f2" stroke="#000" stroke-linecap="square" stroke-opacity=".196" stroke-width="2" d="m272-145.64c-2 0-3 2-3 3v6l8 9 8-9v-6c0-1-1-3-3-3z" style="paint-order:stroke markers fill"/></g><g id="slider-vert-scale-has-marks-above-insensitive" transform="matrix(0,-1,-1,0,89.362,489)"><rect width="24" height="24" x="265" y="-148.64" stroke-width=".566" opacity="0" style="paint-order:fill markers stroke"/><path fill="#ececec" stroke="#000" stroke-linecap="square" stroke-opacity=".196" stroke-width="2" d="m272-145.64c-2 0-3 2-3 3v6l8 9 8-9v-6c0-1-1-3-3-3z" style="paint-order:stroke markers fill"/></g><g id="combobox-arrow" transform="translate(-7.012)"><rect width="28" height="28" x="94" y="57.007" stroke-width="1.556" opacity="0" style="paint-order:markers fill stroke"/><g fill="#4d4d4d" fill-rule="evenodd"><path d="m89.779-212.11-4.5681 4.2826s0 1.2236 1.3094 1.2193l3.585-3.6665 3.5892 3.6708c1.3052 0 1.3052-1.2236 1.3052-1.2236l-4.5681-4.2826s-0.32629-0.30589-0.65258 0z" transform="matrix(1.1178,0,0,1.1178,7.2803,299.26)"/><path d="m89.779-197.18-4.5681-4.2826s0-1.2236 1.3094-1.2193l3.585 3.6665 3.5892-3.6708c1.3052 0 1.3052 1.2236 1.3052 1.2236l-4.5681 4.2826s-0.32629 0.30589-0.65258 0z" transform="matrix(1.1178,0,0,1.1178,7.2803,299.26)"/></g></g><rect id="paned-separator" width="4" height="100" x="28.75" y="164.17" fill="#000" stroke-width="1.907" opacity=".15" rx="2" ry="0"/><rect id="paned-separator-dark" width="4" height="100" x="83.75" y="164.17" fill="#fff" stroke-width="1.907" opacity=".15" rx="2" ry="0"/><path fill="#fff" stroke-width="1.183" d="m216 57c-3.324 0-6 2.676-6 6v0.78516c0-3.2053 2.5799-5.7852 5.7852-5.7852h16.43c3.2053 0 5.7852 2.5799 5.7852 5.7852v-0.78516c0-3.324-2.676-6-6-6h-16z" opacity=".15" style="paint-order:stroke fill markers"/></svg>