<svg xmlns="http://www.w3.org/2000/svg" xmlns:svg="http://www.w3.org/2000/svg" id="svg1544" width="760" height="800" version="1.1" viewBox="0 0 201.083 211.667"><metadata id="metadata1541"/><g id="layer1"><rect id="rect2149" width="85.99" height="198.438" x="93.927" y="7.938" rx="0" ry="0" style="fill:#333;stroke-width:.61172;stroke-linecap:square"/><g style="display:inline" id="sidebar-view-hover-200px" transform="matrix(0.29398148,0,0,0.26458333,-202.25926,9.7895834)"><rect id="rect5216" width="180" height="28" x="742" y="8" style="opacity:0;fill:none;fill-opacity:1;stroke:none;stroke-width:2.71812;stroke-miterlimit:4;stroke-dasharray:none;stroke-opacity:1"/><rect style="opacity:.1;fill:#00000c;fill-opacity:1;stroke:none;stroke-width:2.57864;stroke-miterlimit:4;stroke-dasharray:none;stroke-opacity:1" id="rect5214" width="162" height="28" x="751" y="8" ry="5"/></g><g style="display:inline" id="sidebar-view-active-200px" transform="matrix(0.29398148,0,0,0.26458333,-202.25926,19.843753)"><rect style="opacity:0;fill:none;fill-opacity:1;stroke:none;stroke-width:2.71812;stroke-miterlimit:4;stroke-dasharray:none;stroke-opacity:1" id="rect5224" width="180" height="28" x="742" y="8"/><rect id="rect5226" width="162" height="28" x="751" y="8" ry="5" style="opacity:.2;fill:#00000c;fill-opacity:1;stroke:none;stroke-width:2.57864;stroke-miterlimit:4;stroke-dasharray:none;stroke-opacity:1"/></g><g style="display:inline" id="sidebar-view-checked-200px" transform="matrix(0.29398148,0,0,0.26458333,-202.25926,30.427083)"><rect id="rect5230" width="180" height="28" x="742" y="8" style="opacity:0;fill:none;fill-opacity:1;stroke:none;stroke-width:2.71812;stroke-miterlimit:4;stroke-dasharray:none;stroke-opacity:1"/><rect style="opacity:.15;fill:#00000c;fill-opacity:1;stroke:none;stroke-width:2.57864;stroke-miterlimit:4;stroke-dasharray:none;stroke-opacity:1" id="rect5232" width="162" height="28" x="751" y="8" ry="5"/></g><g style="display:inline" id="sidebar-view-hover-200px-dark" transform="matrix(0.29398148,0,0,0.26458333,-120.23842,9.7895834)"><rect style="opacity:0;fill:none;fill-opacity:1;stroke:none;stroke-width:2.71812;stroke-miterlimit:4;stroke-dasharray:none;stroke-opacity:1" id="rect1524" width="180" height="28" x="742" y="8"/><rect id="rect1526" width="162" height="28" x="751" y="8" ry="5" style="opacity:.1;fill:#fff;fill-opacity:1;stroke:none;stroke-width:2.57864;stroke-miterlimit:4;stroke-dasharray:none;stroke-opacity:1"/></g><g style="display:inline" id="sidebar-view-active-200px-dark" transform="matrix(0.29398148,0,0,0.26458333,-120.23842,19.843746)"><rect id="rect1530" width="180" height="28" x="742" y="8" style="opacity:0;fill:none;fill-opacity:1;stroke:none;stroke-width:2.71812;stroke-miterlimit:4;stroke-dasharray:none;stroke-opacity:1"/><rect style="opacity:.2;fill:#fff;fill-opacity:1;stroke:none;stroke-width:2.57864;stroke-miterlimit:4;stroke-dasharray:none;stroke-opacity:1" id="rect1532" width="162" height="28" x="751" y="8" ry="5"/></g><g style="display:inline" id="sidebar-view-checked-200px-dark" transform="matrix(0.29398148,0,0,0.26458333,-120.23842,30.427086)"><rect style="opacity:0;fill:none;fill-opacity:1;stroke:none;stroke-width:2.71812;stroke-miterlimit:4;stroke-dasharray:none;stroke-opacity:1" id="rect1536" width="180" height="28" x="742" y="8"/><rect id="rect1538" width="162" height="28" x="751" y="8" ry="5" style="opacity:.15;fill:#fff;fill-opacity:1;stroke:none;stroke-width:2.57864;stroke-miterlimit:4;stroke-dasharray:none;stroke-opacity:1"/></g><g id="sidebar-view-hover-220px" transform="matrix(0.32337963,0,0,0.26458333,-224.07269,48.683333)" style="display:inline"><rect style="opacity:0;fill:none;fill-opacity:1;stroke:none;stroke-width:2.71812;stroke-miterlimit:4;stroke-dasharray:none;stroke-opacity:1" id="rect2151" width="180" height="28" x="742" y="8"/><rect id="rect2153" width="163.636" height="28" x="750.182" y="8" ry="5" style="opacity:.1;fill:#00000c;fill-opacity:1;stroke:none;stroke-width:2.59163;stroke-miterlimit:4;stroke-dasharray:none;stroke-opacity:1"/></g><g id="sidebar-view-active-220px" transform="matrix(0.32337963,0,0,0.26458333,-224.07269,58.737503)" style="display:inline"><rect id="rect2157" width="180" height="28" x="742" y="8" style="opacity:0;fill:none;fill-opacity:1;stroke:none;stroke-width:2.71812;stroke-miterlimit:4;stroke-dasharray:none;stroke-opacity:1"/><rect style="opacity:.2;fill:#00000c;fill-opacity:1;stroke:none;stroke-width:2.59163;stroke-miterlimit:4;stroke-dasharray:none;stroke-opacity:1" id="rect2159" width="163.636" height="28" x="750.182" y="8" ry="5"/></g><g id="sidebar-view-checked-220px" transform="matrix(0.32337963,0,0,0.26458333,-224.07269,69.320833)" style="display:inline"><rect style="opacity:0;fill:none;fill-opacity:1;stroke:none;stroke-width:2.71812;stroke-miterlimit:4;stroke-dasharray:none;stroke-opacity:1" id="rect2163" width="180" height="28" x="742" y="8"/><rect id="rect2165" width="163.636" height="28" x="750.182" y="8" ry="5" style="opacity:.15;fill:#00000c;fill-opacity:1;stroke:none;stroke-width:2.59163;stroke-miterlimit:4;stroke-dasharray:none;stroke-opacity:1"/></g><g style="display:inline" id="sidebar-view-hover-240px" transform="matrix(0.35277778,0,0,0.26458333,-245.88611,91.016667)"><rect id="rect2187" width="180" height="28" x="742" y="8" style="opacity:0;fill:none;fill-opacity:1;stroke:none;stroke-width:2.71812;stroke-miterlimit:4;stroke-dasharray:none;stroke-opacity:1"/><rect style="opacity:.1;fill:#00000c;fill-opacity:1;stroke:none;stroke-width:2.60241;stroke-miterlimit:4;stroke-dasharray:none;stroke-opacity:1" id="rect2189" width="165" height="28" x="749.5" y="8" ry="5"/></g><g style="display:inline" id="sidebar-view-active-240px" transform="matrix(0.35277778,0,0,0.26458333,-245.88611,101.07084)"><rect style="opacity:0;fill:none;fill-opacity:1;stroke:none;stroke-width:2.71812;stroke-miterlimit:4;stroke-dasharray:none;stroke-opacity:1" id="rect2193" width="180" height="28" x="742" y="8"/><rect id="rect2195" width="165" height="28" x="749.5" y="8" ry="5" style="opacity:.2;fill:#00000c;fill-opacity:1;stroke:none;stroke-width:2.60241;stroke-miterlimit:4;stroke-dasharray:none;stroke-opacity:1"/></g><g style="display:inline" id="sidebar-view-checked-240px" transform="matrix(0.35277778,0,0,0.26458333,-245.88611,111.65417)"><rect id="rect2199" width="180" height="28" x="742" y="8" style="opacity:0;fill:none;fill-opacity:1;stroke:none;stroke-width:2.71812;stroke-miterlimit:4;stroke-dasharray:none;stroke-opacity:1"/><rect style="opacity:.15;fill:#00000c;fill-opacity:1;stroke:none;stroke-width:2.60241;stroke-miterlimit:4;stroke-dasharray:none;stroke-opacity:1" id="rect2201" width="165" height="28" x="749.5" y="8" ry="5"/></g><g id="sidebar-view-hover-260px" transform="matrix(0.38217593,0,0,0.26458333,-267.69953,130.175)" style="display:inline"><rect style="opacity:0;fill:none;fill-opacity:1;stroke:none;stroke-width:2.71812;stroke-miterlimit:4;stroke-dasharray:none;stroke-opacity:1" id="rect2223" width="180" height="28" x="742" y="8"/><rect id="rect2225" width="166.154" height="28" x="748.923" y="8" ry="5" style="opacity:.1;fill:#00000c;fill-opacity:1;stroke:none;stroke-width:2.61149;stroke-miterlimit:4;stroke-dasharray:none;stroke-opacity:1"/></g><g id="sidebar-view-active-260px" transform="matrix(0.38217593,0,0,0.26458333,-267.69953,140.22917)" style="display:inline"><rect id="rect2229" width="180" height="28" x="742" y="8" style="opacity:0;fill:none;fill-opacity:1;stroke:none;stroke-width:2.71812;stroke-miterlimit:4;stroke-dasharray:none;stroke-opacity:1"/><rect style="opacity:.2;fill:#00000c;fill-opacity:1;stroke:none;stroke-width:2.61149;stroke-miterlimit:4;stroke-dasharray:none;stroke-opacity:1" id="rect2231" width="166.154" height="28" x="748.923" y="8" ry="5"/></g><g id="sidebar-view-checked-260px" transform="matrix(0.38217593,0,0,0.26458333,-267.69953,150.8125)" style="display:inline"><rect style="opacity:0;fill:none;fill-opacity:1;stroke:none;stroke-width:2.71812;stroke-miterlimit:4;stroke-dasharray:none;stroke-opacity:1" id="rect2235" width="180" height="28" x="742" y="8"/><rect id="rect2237" width="166.154" height="28" x="748.923" y="8" ry="5" style="opacity:.15;fill:#00000c;fill-opacity:1;stroke:none;stroke-width:2.61149;stroke-miterlimit:4;stroke-dasharray:none;stroke-opacity:1"/></g><g style="display:inline" id="sidebar-view-hover-280px" transform="matrix(0.41157407,0,0,0.26458333,-289.51295,168.53958)"><rect id="rect2241" width="180" height="28" x="742" y="8" style="opacity:0;fill:none;fill-opacity:1;stroke:none;stroke-width:2.71812;stroke-miterlimit:4;stroke-dasharray:none;stroke-opacity:1"/><rect style="opacity:.1;fill:#00000c;fill-opacity:1;stroke:none;stroke-width:2.61925;stroke-miterlimit:4;stroke-dasharray:none;stroke-opacity:1" id="rect2243" width="167.143" height="28" x="748.429" y="8" ry="5"/></g><g style="display:inline" id="sidebar-view-active-280px" transform="matrix(0.41157407,0,0,0.26458333,-289.51295,178.59375)"><rect style="opacity:0;fill:none;fill-opacity:1;stroke:none;stroke-width:2.71812;stroke-miterlimit:4;stroke-dasharray:none;stroke-opacity:1" id="rect2247" width="180" height="28" x="742" y="8"/><rect id="rect2249" width="167.143" height="28" x="748.429" y="8" ry="5" style="opacity:.2;fill:#00000c;fill-opacity:1;stroke:none;stroke-width:2.61925;stroke-miterlimit:4;stroke-dasharray:none;stroke-opacity:1"/></g><g style="display:inline" id="sidebar-view-checked-280px" transform="matrix(0.41157407,0,0,0.26458333,-289.51295,189.17708)"><rect id="rect2253" width="180" height="28" x="742" y="8" style="opacity:0;fill:none;fill-opacity:1;stroke:none;stroke-width:2.71812;stroke-miterlimit:4;stroke-dasharray:none;stroke-opacity:1"/><rect style="opacity:.15;fill:#00000c;fill-opacity:1;stroke:none;stroke-width:2.61925;stroke-miterlimit:4;stroke-dasharray:none;stroke-opacity:1" id="rect2255" width="167.143" height="28" x="748.429" y="8" ry="5"/></g><g style="display:inline" id="sidebar-view-hover-220px-dark" transform="matrix(0.32337963,0,0,0.26458333,-142.05185,48.683333)"><rect id="rect2263" width="180" height="28" x="742" y="8" style="opacity:0;fill:none;fill-opacity:1;stroke:none;stroke-width:2.71812;stroke-miterlimit:4;stroke-dasharray:none;stroke-opacity:1"/><rect style="opacity:.1;fill:#fff;fill-opacity:1;stroke:none;stroke-width:2.59163;stroke-miterlimit:4;stroke-dasharray:none;stroke-opacity:1" id="rect2265" width="163.636" height="28" x="750.182" y="8" ry="5"/></g><g style="display:inline" id="sidebar-view-active-220px-dark" transform="matrix(0.32337963,0,0,0.26458333,-142.05185,58.737503)"><rect style="opacity:0;fill:none;fill-opacity:1;stroke:none;stroke-width:2.71812;stroke-miterlimit:4;stroke-dasharray:none;stroke-opacity:1" id="rect2269" width="180" height="28" x="742" y="8"/><rect id="rect2271" width="163.636" height="28" x="750.182" y="8" ry="5" style="opacity:.2;fill:#fff;fill-opacity:1;stroke:none;stroke-width:2.59163;stroke-miterlimit:4;stroke-dasharray:none;stroke-opacity:1"/></g><g style="display:inline" id="sidebar-view-checked-220px-dark" transform="matrix(0.32337963,0,0,0.26458333,-142.05185,69.320833)"><rect id="rect2275" width="180" height="28" x="742" y="8" style="opacity:0;fill:none;fill-opacity:1;stroke:none;stroke-width:2.71812;stroke-miterlimit:4;stroke-dasharray:none;stroke-opacity:1"/><rect style="opacity:.15;fill:#fff;fill-opacity:1;stroke:none;stroke-width:2.59163;stroke-miterlimit:4;stroke-dasharray:none;stroke-opacity:1" id="rect2277" width="163.636" height="28" x="750.182" y="8" ry="5"/></g><g id="sidebar-view-hover-240px-dark" transform="matrix(0.35277778,0,0,0.26458333,-163.86527,91.016667)" style="display:inline"><rect style="opacity:0;fill:none;fill-opacity:1;stroke:none;stroke-width:2.71812;stroke-miterlimit:4;stroke-dasharray:none;stroke-opacity:1" id="rect2281" width="180" height="28" x="742" y="8"/><rect id="rect2283" width="165" height="28" x="749.5" y="8" ry="5" style="opacity:.1;fill:#fff;fill-opacity:1;stroke:none;stroke-width:2.60241;stroke-miterlimit:4;stroke-dasharray:none;stroke-opacity:1"/></g><g id="sidebar-view-active-240px-dark" transform="matrix(0.35277778,0,0,0.26458333,-163.86527,101.07084)" style="display:inline"><rect id="rect2287" width="180" height="28" x="742" y="8" style="opacity:0;fill:none;fill-opacity:1;stroke:none;stroke-width:2.71812;stroke-miterlimit:4;stroke-dasharray:none;stroke-opacity:1"/><rect style="opacity:.2;fill:#fff;fill-opacity:1;stroke:none;stroke-width:2.60241;stroke-miterlimit:4;stroke-dasharray:none;stroke-opacity:1" id="rect2289" width="165" height="28" x="749.5" y="8" ry="5"/></g><g id="sidebar-view-checked-240px-dark" transform="matrix(0.35277778,0,0,0.26458333,-163.86527,111.65417)" style="display:inline"><rect style="opacity:0;fill:none;fill-opacity:1;stroke:none;stroke-width:2.71812;stroke-miterlimit:4;stroke-dasharray:none;stroke-opacity:1" id="rect2293" width="180" height="28" x="742" y="8"/><rect id="rect2295" width="165" height="28" x="749.5" y="8" ry="5" style="opacity:.15;fill:#fff;fill-opacity:1;stroke:none;stroke-width:2.60241;stroke-miterlimit:4;stroke-dasharray:none;stroke-opacity:1"/></g><g style="display:inline" id="sidebar-view-hover-260px-dark" transform="matrix(0.38217593,0,0,0.26458333,-185.67869,130.175)"><rect id="rect2299" width="180" height="28" x="742" y="8" style="opacity:0;fill:none;fill-opacity:1;stroke:none;stroke-width:2.71812;stroke-miterlimit:4;stroke-dasharray:none;stroke-opacity:1"/><rect style="opacity:.1;fill:#fff;fill-opacity:1;stroke:none;stroke-width:2.61149;stroke-miterlimit:4;stroke-dasharray:none;stroke-opacity:1" id="rect2301" width="166.154" height="28" x="748.923" y="8" ry="5"/></g><g style="display:inline" id="sidebar-view-active-260px-dark" transform="matrix(0.38217593,0,0,0.26458333,-185.67869,140.22917)"><rect style="opacity:0;fill:none;fill-opacity:1;stroke:none;stroke-width:2.71812;stroke-miterlimit:4;stroke-dasharray:none;stroke-opacity:1" id="rect2305" width="180" height="28" x="742" y="8"/><rect id="rect2307" width="166.154" height="28" x="748.923" y="8" ry="5" style="opacity:.2;fill:#fff;fill-opacity:1;stroke:none;stroke-width:2.61149;stroke-miterlimit:4;stroke-dasharray:none;stroke-opacity:1"/></g><g style="display:inline" id="sidebar-view-checked-260px-dark" transform="matrix(0.38217593,0,0,0.26458333,-185.67869,150.8125)"><rect id="rect2311" width="180" height="28" x="742" y="8" style="opacity:0;fill:none;fill-opacity:1;stroke:none;stroke-width:2.71812;stroke-miterlimit:4;stroke-dasharray:none;stroke-opacity:1"/><rect style="opacity:.15;fill:#fff;fill-opacity:1;stroke:none;stroke-width:2.61149;stroke-miterlimit:4;stroke-dasharray:none;stroke-opacity:1" id="rect2313" width="166.154" height="28" x="748.923" y="8" ry="5"/></g><g id="sidebar-view-hover-280px-dark" transform="matrix(0.41157407,0,0,0.26458333,-207.49211,168.53958)" style="display:inline"><rect style="opacity:0;fill:none;fill-opacity:1;stroke:none;stroke-width:2.71812;stroke-miterlimit:4;stroke-dasharray:none;stroke-opacity:1" id="rect2317" width="180" height="28" x="742" y="8"/><rect id="rect2319" width="167.143" height="28" x="748.429" y="8" ry="5" style="opacity:.1;fill:#fff;fill-opacity:1;stroke:none;stroke-width:2.61925;stroke-miterlimit:4;stroke-dasharray:none;stroke-opacity:1"/></g><g id="sidebar-view-active-280px-dark" transform="matrix(0.41157407,0,0,0.26458333,-207.49211,178.59375)" style="display:inline"><rect id="rect2323" width="180" height="28" x="742" y="8" style="opacity:0;fill:none;fill-opacity:1;stroke:none;stroke-width:2.71812;stroke-miterlimit:4;stroke-dasharray:none;stroke-opacity:1"/><rect style="opacity:.2;fill:#fff;fill-opacity:1;stroke:none;stroke-width:2.61925;stroke-miterlimit:4;stroke-dasharray:none;stroke-opacity:1" id="rect2325" width="167.143" height="28" x="748.429" y="8" ry="5"/></g><g id="sidebar-view-checked-280px-dark" transform="matrix(0.41157407,0,0,0.26458333,-207.49211,189.17708)" style="display:inline"><rect style="opacity:0;fill:none;fill-opacity:1;stroke:none;stroke-width:2.71812;stroke-miterlimit:4;stroke-dasharray:none;stroke-opacity:1" id="rect2329" width="180" height="28" x="742" y="8"/><rect id="rect2331" width="167.143" height="28" x="748.429" y="8" ry="5" style="opacity:.15;fill:#fff;fill-opacity:1;stroke:none;stroke-width:2.61925;stroke-miterlimit:4;stroke-dasharray:none;stroke-opacity:1"/></g></g></svg>