<svg xmlns="http://www.w3.org/2000/svg" width="16" height="16" version="1.1" viewBox="0 0 4.233 4.233"><g fill="#333"><path stroke-width=".265" d="m0.26459 0.52917c0-0.29316 0.23601-0.52917 0.52917-0.52917h2.6458c0.29316 0 0.52917 0.23601 0.52917 0.52917v3.175c0 0.29316-0.23601 0.52917-0.52917 0.52917h-2.6458c-0.29316 0-0.52917-0.23601-0.52917-0.52917zm0.26458 0v3.175c0 0.14658 0.118 0.26458 0.26458 0.26458h2.6458c0.14658 0 0.26458-0.118 0.26458-0.26458v-3.175c0-0.14658-0.118-0.26458-0.26458-0.26458h-2.6458c-0.14658 0-0.26458 0.118-0.26458 0.26458z" color="#363636"/><g stroke-linecap="square"><g stroke-width=".566"><rect width="2.117" height=".265" x="1.058" y="1.058" ry=".132"/><rect width="2.117" height=".265" x="1.058" y="1.852" ry=".132"/></g><rect width="1.21" height=".265" x="1.058" y="2.646" stroke-width=".428" ry=".132"/></g></g></svg>