<svg xmlns="http://www.w3.org/2000/svg" width="16" height="16" version="1.1" viewBox="0 0 4.233 4.233"><g fill="#333" transform="translate(0 -3.3407e-5)"><path stroke-width=".265" d="m3.7042 0.52917c0.29316 0 0.52917 0.23601 0.52917 0.52917v2.3812c0 0.29316-0.23601 0.52917-0.52917 0.52917h-3.175c-0.29316 0-0.52917-0.23601-0.52917-0.52917v-2.3812c0-0.29316 0.23601-0.52917 0.52917-0.52917zm0 0.26458h-3.175c-0.14658 0-0.26458 0.118-0.26458 0.26458v2.3812c0 0.14658 0.118 0.26458 0.26458 0.26458h3.175c0.14658 0 0.26458-0.118 0.26458-0.26458v-2.3812c0-0.14658-0.118-0.26458-0.26458-0.26458z" color="#363636"/><rect width=".265" height="2.91" x="-2.646" y=".794" stroke-width=".265" color="#363636" ry="0" transform="scale(-1,1)"/><g stroke-linecap="round" stroke-linejoin="round" stroke-width=".529"><rect width=".794" height=".265" x="2.91" y="1.058"/><rect width=".794" height=".265" x="2.91" y="1.587"/><rect width=".794" height=".265" x="2.91" y="2.117"/></g></g></svg>