<svg xmlns="http://www.w3.org/2000/svg" width="16" height="16" version="1.1"><path fill="#363636" stroke-linecap="round" stroke-linejoin="round" stroke-width="1.002" d="m7.4629 1a7.5 7.5 0 0 0-7.4629 7.5 7.5 7.5 0 0 0 7.5 7.5 7.5 7.5 0 0 0 7.5-7.5 7.5 7.5 0 0 0-7.5-7.5 7.5 7.5 0 0 0-0.037109 0zm0.037109 1a6.5 6.5 0 0 1 6.5 6.5 6.5 6.5 0 0 1-6.5 6.5 6.5 6.5 0 0 1-6.5-6.5 6.5 6.5 0 0 1 6.5-6.5z"/><path fill="#363636" stroke-linecap="round" stroke-linejoin="round" stroke-width="1.002" d="m4 8h7v1h-7z"/></svg>