<svg xmlns="http://www.w3.org/2000/svg" xmlns:osb="http://www.openswatchbook.org/uri/2009/osb" xmlns:svg="http://www.w3.org/2000/svg" id="svg11300" width="24" height="24" version="1.0" style="display:inline;enable-background:new"><defs id="defs3"><linearGradient id="selected_bg_color" osb:paint="solid"><stop style="stop-color:#5294e2;stop-opacity:1" id="stop4140" offset="0"/></linearGradient></defs><metadata id="metadata4"/><g style="display:inline" id="layer1" transform="translate(0,-276)"><path style="fill:#fff;fill-opacity:1;stroke-width:3.77960181" id="path12" d="m 17.73448,279 c -3.554505,0 -4.219911,5.39978 -2.221565,5.39978 1.998346,0 5.77607,-5.39978 2.221565,-5.39978 z m -5.642138,0.61226 c -2.03236,0.28699 -1.318058,4.11574 -0.233849,4.18802 1.079957,0.0702 2.268335,-4.47289 0.233849,-4.18802 z m -3.6778075,1.19051 a 1.2457773,1.2457773 0 0 0 -0.333766,0.085 c -1.902681,0.7228 -0.289123,3.70332 0.778079,3.50348 0.999173,-0.1892 1.113972,-3.73946 -0.442187,-3.58639 z m -2.500058,2.39801 a 1.0098024,1.0098024 0 0 0 -0.550608,0.15732 c -1.564662,0.92264 0.527223,3.15058 1.445612,2.80619 0.807842,-0.304 0.293374,-2.92949 -0.895004,-2.96564 z m 7.2960885,1.80064 c -2.79981,-0.051 -6.4946245,1.42009 -7.1238905,4.37085 C 5.4042605,292.5675 8.8949885,297 12.538781,297 c 1.792133,0 3.858508,-1.69434 4.245422,-3.83938 0.2955,-1.63482 -3.716073,-0.97791 -3.580015,0.10205 0.110546,0.88437 -0.3529,1.34357 -0.990669,1.36057 -0.87162,-0.1063 -1.2968,-0.61013 -1.413724,-1.3712 -0.155191,-1.9941 6.131095,-3.41845 5.633635,-6.51164 -0.182828,-1.1331 -1.541278,-1.70922 -3.222865,-1.73898 z"/></g></svg>