<svg xmlns="http://www.w3.org/2000/svg" xmlns:osb="http://www.openswatchbook.org/uri/2009/osb" xmlns:svg="http://www.w3.org/2000/svg" id="svg11300" width="24" height="24" version="1.0" style="display:inline;enable-background:new"><defs id="defs3"><linearGradient id="selected_bg_color" osb:paint="solid"><stop style="stop-color:#5294e2;stop-opacity:1" id="stop4140" offset="0"/></linearGradient></defs><metadata id="metadata4"/><g style="display:inline" id="layer1" transform="translate(0,-276)"><path style="fill:#fff;fill-rule:evenodd;stroke-width:3.77960205;fill-opacity:1" id="path14" d="m 11.998949,278.99999 c -0.801466,1.96409 -1.284045,3.25011 -2.1769246,5.15469 0.5463576,0.58031 1.2181436,1.25414 2.3087316,2.01937 -1.171373,-0.48252 -1.972839,-0.96717 -2.5702179,-1.47095 -1.1416106,2.38286 -2.9294954,5.77539 -6.5605385,12.29689 2.852963,-1.64526 5.0660288,-2.66132 7.1260294,-3.04819 a 5.2233454,5.2227208 0 0 1 -0.1339323,-1.22224 l 0.0021,-0.0914 c 0.046766,-1.82806 0.9970493,-3.23311 2.1237773,-3.13746 1.126729,0.0957 2.000476,1.65588 1.955832,3.48182 a 5.1595683,5.1589513 0 0 1 -0.114799,0.98206 c 2.038741,0.39962 4.226297,1.41143 7.040993,3.03543 -0.554861,-1.02032 -1.050196,-1.94072 -1.524273,-2.81861 -0.744066,-0.57818 -1.522147,-1.32853 -3.105945,-2.14266 1.088462,0.28271 1.870796,0.61006 2.476677,0.97567 -4.808805,-8.95323 -5.197846,-10.14359 -6.847547,-14.0144 z"/></g></svg>